<svg width="22" height="22" viewBox="0 0 22 22" fill="none" xmlns="http://www.w3.org/2000/svg">
<g clip-path="url(#clip0_1023_3878)">
<path d="M18.0991 8.40051C17.8803 7.27898 17.3375 6.25912 16.5296 5.45114C15.7216 4.6432 14.7017 4.10046 13.5802 3.88162C13.0985 3.78756 12.6317 4.10197 12.5377 4.58369C12.4438 5.06545 12.7581 5.53214 13.2398 5.62611C14.8231 5.93497 16.0456 7.1576 16.3545 8.74086C16.4373 9.16514 16.8092 9.45956 17.2259 9.45956C17.2823 9.45956 17.3395 9.45419 17.3971 9.44293C17.8787 9.34896 18.193 8.88223 18.0991 8.40051Z" fill="#04823E"/>
<path d="M21.9751 8.46179C21.7333 6.30923 20.756 4.28076 19.2233 2.75009C17.6907 1.21937 15.661 0.244674 13.5081 0.00551027C13.0202 -0.0486732 12.5809 0.302853 12.5268 0.790634C12.4726 1.27846 12.8241 1.71781 13.3119 1.77204C16.9625 2.17758 19.7987 5.01016 20.2089 8.66035C20.2599 9.11435 20.6445 9.44985 21.0909 9.44985C21.124 9.44985 21.1576 9.448 21.1913 9.44422C21.679 9.38935 22.03 8.94957 21.9751 8.46179Z" fill="#04823E"/>
<path d="M18.5878 13.4305C18.5852 13.4302 18.5825 13.4298 18.5798 13.4295C17.7199 13.3161 16.8718 13.1047 16.0611 12.8023C15.0337 12.416 13.8652 12.6652 13.0846 13.437C13.0834 13.4382 13.0822 13.4394 13.0811 13.4406L12.3442 14.1774C10.5123 13.0205 8.96018 11.4684 7.80334 9.63653L8.54021 8.89966C8.54137 8.89846 8.54253 8.8973 8.54373 8.8961C9.31562 8.11553 9.56475 6.94721 9.17924 5.92168C8.87601 5.10897 8.66473 4.26081 8.55129 3.40088C8.55099 3.39817 8.55056 3.39542 8.55018 3.39271C8.35291 1.99718 7.14158 0.95493 5.73367 0.966402H2.83822C2.75473 0.966488 2.67013 0.970313 2.58673 0.977875C1.03741 1.11787 -0.10917 2.49222 0.0308648 4.04154C0.0312945 4.04618 0.0317241 4.05078 0.0322398 4.05542C0.362411 7.16437 1.43512 10.1948 3.13445 12.8191C4.67668 15.2451 6.77394 17.3424 9.19999 18.8847C11.8121 20.5779 14.8285 21.6506 17.9232 21.9869C17.9286 21.9875 17.9341 21.9881 17.9395 21.9885C18.0238 21.9961 18.1092 22 18.1939 22C18.1975 22 18.201 22 18.2045 22C19.7602 21.9936 21.0206 20.7229 21.0143 19.1709V16.282C21.0437 14.8549 20.0026 13.6301 18.5878 13.4305ZM19.237 16.272V19.1745C19.2394 19.7501 18.7729 20.2202 18.1976 20.2226C18.1669 20.2224 18.1364 20.2214 18.1059 20.2189C15.288 19.9112 12.5419 18.9335 10.1636 17.3912C10.1614 17.3897 10.1591 17.3883 10.1567 17.3868C7.9469 15.9826 6.03668 14.0723 4.63247 11.8625C4.63109 11.8603 4.62972 11.8582 4.6283 11.856C3.08014 9.46625 2.10238 6.7068 1.80049 3.87547C1.75223 3.30471 2.17552 2.79962 2.7467 2.74801C2.77751 2.74526 2.8087 2.7438 2.83887 2.7438H5.73766C5.74394 2.74376 5.7503 2.74367 5.7567 2.74372C6.27322 2.74372 6.71584 3.12635 6.78984 3.63828C6.92089 4.62927 7.16457 5.6065 7.51476 6.54507C7.65737 6.92457 7.56585 7.35584 7.28157 7.64468L6.05623 8.87002C5.77337 9.15284 5.71437 9.58987 5.91212 9.93766C7.36605 12.4946 9.48612 14.6147 12.0431 16.0686C12.3909 16.2663 12.8279 16.2074 13.1108 15.9245L14.3359 14.6994C14.6247 14.4149 15.0563 14.3233 15.4377 14.4667C16.3744 14.8162 17.3518 15.0599 18.3428 15.1909C18.8662 15.2664 19.2504 15.7211 19.2373 16.25C19.2371 16.2573 19.237 16.2647 19.237 16.272Z" fill="#04823E"/>
</g>
<defs>
<clipPath id="clip0_1023_3878">
<rect width="22" height="22" fill="white"/>
</clipPath>
</defs>
</svg>
