<svg width="30" height="25" viewBox="0 0 30 25" fill="none" xmlns="http://www.w3.org/2000/svg">
<path d="M29.8971 8.4978L26.1471 0.997803C26.0692 0.843196 25.95 0.71318 25.8027 0.622168C25.6554 0.531156 25.4858 0.482702 25.3127 0.482178H4.68769C4.51457 0.482702 4.34497 0.531156 4.19769 0.622168C4.05042 0.71318 3.93122 0.843196 3.85332 0.997803L0.103319 8.4978C0.107293 8.52579 0.107293 8.55419 0.103319 8.58218C0.0988773 8.66337 0.0988773 8.74474 0.103319 8.82593L0.000193618 8.91968C-0.000715581 8.93529 -0.000715581 8.95094 0.000193618 8.96655C0.00898747 9.05589 0.0278574 9.14395 0.0564436 9.22905C0.0564436 9.22905 0.0564436 9.27593 0.0564436 9.30405C0.094811 9.39907 0.152242 9.48522 0.225194 9.55718L14.2877 24.5572C14.3754 24.6508 14.4814 24.7255 14.5991 24.7766C14.7168 24.8276 14.8438 24.8539 14.9721 24.8539C15.1004 24.8539 15.2273 24.8276 15.345 24.7766C15.4628 24.7255 15.5687 24.6508 15.6564 24.5572L29.7189 9.55718C29.8536 9.42013 29.9429 9.24502 29.9748 9.05553C30.0066 8.86605 29.9795 8.67136 29.8971 8.4978ZM15.0002 3.19155L18.0002 7.98218H12.0002L15.0002 3.19155ZM10.2377 7.2603L6.56269 2.35718H13.3127L10.2377 7.2603ZM16.6877 2.35718H23.4377L19.7627 7.2603L16.6877 2.35718ZM18.4127 9.85718L15.0002 20.7791L11.5877 9.85718H18.4127ZM12.8908 20.3009L3.10332 9.85718H9.66582L12.8908 20.3009ZM20.3908 9.85718H26.9533L17.1096 20.3009L20.3908 9.85718ZM27.5627 7.98218H21.5627L25.1533 3.19155L27.5627 7.98218ZM4.84707 3.19155L8.43769 7.98218H2.45644L4.84707 3.19155Z" fill="#A6A6A6"/>
</svg>
