<svg width="26" height="25" viewBox="0 0 26 25" fill="none" xmlns="http://www.w3.org/2000/svg">
<g clip-path="url(#clip0_608_8192)">
<path d="M13.0016 0L0 9.65064V25H26V9.65064L13.0016 0ZM9.40472 6.88711C9.78718 6.19377 10.3121 5.67209 10.979 5.32516C11.6444 4.97513 12.4043 4.80012 13.2626 4.80012C13.9872 4.80012 14.6336 4.94152 15.1991 5.22072C15.7646 5.50354 16.1944 5.90062 16.4939 6.4192C16.7903 6.93752 16.9408 7.5029 16.9408 8.11558C16.9408 8.84588 16.7141 9.50562 16.2622 10.0981C15.6933 10.8421 14.9674 11.2157 14.0787 11.2157C13.8401 11.2157 13.6607 11.1754 13.5387 11.0911C13.4186 11.0068 13.3357 10.8858 13.2967 10.7243C12.9581 11.0508 12.5637 11.2157 12.1204 11.2157C11.6412 11.2157 11.2453 11.0508 10.9304 10.7243C10.6155 10.3944 10.4564 9.95672 10.4564 9.41488C10.4564 8.73834 10.646 8.12566 11.0269 7.57037C11.4889 6.89383 12.078 6.55363 12.799 6.55363C13.312 6.55363 13.6911 6.74881 13.935 7.13942L14.0449 6.66143H15.1876L14.5343 9.74474C14.4937 9.93992 14.4734 10.0645 14.4734 10.1217C14.4734 10.1959 14.4888 10.2463 14.5223 10.2832C14.5545 10.3202 14.5951 10.337 14.6409 10.337C14.7813 10.337 14.9591 10.2563 15.1772 10.0878C15.4718 9.87245 15.7089 9.57619 15.8899 9.21272C16.0727 8.84588 16.1642 8.46535 16.1642 8.07163C16.1642 7.36821 15.9086 6.77905 15.3956 6.30106C14.8811 5.82978 14.1635 5.59092 13.2444 5.59092C12.4623 5.59092 11.8006 5.74913 11.2572 6.06891C10.7156 6.38197 10.3077 6.82972 10.0282 7.40518C9.7539 7.97727 9.61688 8.57651 9.61688 9.19927C9.61688 9.80187 9.77262 10.3538 10.0773 10.8486C10.387 11.3468 10.817 11.7069 11.3706 11.9359C11.9257 12.1616 12.5606 12.2759 13.2748 12.2759C13.9623 12.2759 14.5545 12.1815 15.0522 11.9897C15.548 11.7979 15.9476 11.5151 16.2505 11.1314H17.1696C16.8821 11.7136 16.4401 12.1681 15.8441 12.5013C15.1603 12.8782 14.3257 13.0669 13.3458 13.0669C12.3926 13.0669 11.5718 12.9087 10.8813 12.5889C10.1873 12.2691 9.67434 11.7979 9.33582 11.1751C8.99912 10.5523 8.83142 9.87245 8.83142 9.13852C8.8309 8.33454 9.02044 7.58381 9.40472 6.88711ZM0.91754 9.95698L10.5102 16.3527L0.91754 23.7343V9.95698ZM1.64528 24.2257L13.0016 15.4871L24.3547 24.2257H1.64528ZM25.0827 23.7343L15.49 16.3524L25.0827 9.95672V23.7343ZM13.4706 7.59053C13.623 7.76219 13.6991 8.01114 13.6991 8.33428C13.6991 8.62382 13.6417 8.93688 13.5314 9.27011C13.4215 9.6067 13.2894 9.86263 13.137 10.0376C13.0304 10.1589 12.9204 10.2496 12.8105 10.307C12.6664 10.3877 12.5141 10.4283 12.35 10.4283C12.13 10.4283 11.9473 10.3406 11.7965 10.169C11.6493 9.99731 11.5765 9.73156 11.5765 9.36783C11.5765 9.09509 11.629 8.78203 11.7356 8.42864C11.8422 8.07525 12.0013 7.80588 12.2114 7.61406C12.4228 7.42224 12.6513 7.32814 12.8986 7.32814C13.1287 7.32814 13.3198 7.41552 13.4706 7.59053Z" fill="white"/>
</g>
<defs>
<clipPath id="clip0_608_8192">
<rect width="26" height="25" fill="white"/>
</clipPath>
</defs>
</svg>
