<svg width="30" height="30" viewBox="0 0 30 30" fill="none" xmlns="http://www.w3.org/2000/svg">
<g clip-path="url(#clip0_886_4764)">
<path d="M25.125 4.875H4.875C3.01116 4.875 1.5 6.38616 1.5 8.25V21.75C1.5 23.6138 3.01116 25.125 4.875 25.125H25.125C26.9888 25.125 28.5 23.6138 28.5 21.75V8.25C28.5 6.38616 26.9888 4.875 25.125 4.875ZM25.9688 6.5625L15 15L4.03125 6.5625H25.9688ZM3.1875 21.75V8.25L10.7812 14.1562L3.26766 22.2377C3.22041 22.0824 3.1875 21.9213 3.1875 21.75ZM4.49951 23.3928L12.1144 15.2793L15 17.4595L17.7616 15.2649L25.5005 23.3919C25.379 23.4198 4.62101 23.4198 4.49951 23.3928ZM26.7324 22.2385L19.2188 14.1562L26.8125 8.25V21.75C26.8125 21.9213 26.7796 22.0824 26.7324 22.2385Z" fill="#969696"/>
</g>
<defs>
<clipPath id="clip0_886_4764">
<rect width="27" height="27" fill="white" transform="translate(1.5 1.5)"/>
</clipPath>
</defs>
</svg>
