<svg width="24" height="21" viewBox="0 0 24 21" fill="none" xmlns="http://www.w3.org/2000/svg">
<path d="M12.3394 3.5H22.0001C22.8311 3.5 23.5001 4.169 23.5001 5V19C23.5001 19.831 22.8311 20.5 22.0001 20.5H12.5001L11.8193 17.6069" stroke="#969696" stroke-miterlimit="4.1" stroke-linecap="round" stroke-linejoin="round"/>
<path d="M15.5 17.5H2.00002C1.16901 17.5 0.5 16.831 0.5 16V2C0.5 1.169 1.16901 0.5 2.00002 0.5H11.5L15.5 17.5Z" stroke="#969696" stroke-miterlimit="4.1" stroke-linecap="round" stroke-linejoin="round"/>
<path d="M12.5051 20.495L15.495 17.5051" stroke="#969696" stroke-linecap="round" stroke-linejoin="round"/>
<path d="M5.99961 5.99961H8.50013C8.50011 7.13141 7.73996 8.12199 6.64679 8.41489C5.55361 8.70779 4.39998 8.22995 3.83409 7.24985C3.26821 6.26975 3.4312 5.03174 4.23147 4.23154C5.03174 3.43124 6.26975 3.26818 7.24987 3.83408" stroke="#969696" stroke-miterlimit="4.1" stroke-linecap="round" stroke-linejoin="round"/>
<path d="M13.4929 7.5H20.4929" stroke="#969696" stroke-linecap="round" stroke-linejoin="round"/>
<path d="M19.9878 14.4935C18.7122 13.8105 17.632 12.8133 16.8497 11.5961C16.0673 10.3789 15.6087 8.98212 15.5171 7.53809" stroke="#969696" stroke-linecap="round" stroke-linejoin="round"/>
<path d="M18.4832 7.5332C18.4015 8.834 18.0217 10.0987 17.3732 11.2292C16.7247 12.3598 15.8249 13.3261 14.7434 14.0535" stroke="#969696" stroke-linecap="round" stroke-linejoin="round"/>
<path d="M17 5.50708V7.50708" stroke="#969696" stroke-linecap="round" stroke-linejoin="round"/>
</svg>
