<svg width="78" height="78" viewBox="0 0 78 78" fill="none" xmlns="http://www.w3.org/2000/svg">
<path d="M66.3 23.5217V20.2311C66.3 20.1092 66.1781 19.9873 66.0562 19.9873H18.8906C18.7687 19.9873 18.6469 20.1092 18.6469 20.2311V23.5217" stroke="white" stroke-width="2" stroke-miterlimit="10"/>
<path d="M30.8343 58.0125H66.0562C66.1781 58.0125 66.3 57.8906 66.3 57.7688V27.0563C66.3 26.9344 66.1781 26.8125 66.0562 26.8125H18.8906C18.7687 26.8125 18.6469 26.9344 18.6469 27.0563V31.2" stroke="white" stroke-width="2" stroke-miterlimit="10"/>
<path d="M60.6938 50.9438H55.6969" stroke="white" stroke-width="2" stroke-miterlimit="10"/>
<path d="M53.2593 50.9438H48.2625" stroke="white" stroke-width="2" stroke-miterlimit="10"/>
<path d="M45.703 50.9438H42.5343" stroke="white" stroke-width="2" stroke-miterlimit="10"/>
<path d="M49.6031 41.6813V35.5875C49.6031 35.4656 49.725 35.3438 49.8469 35.3438H59.3531C59.475 35.3438 59.5969 35.4656 59.5969 35.5875V41.6813C59.5969 41.8031 59.475 41.925 59.3531 41.925H49.8469C49.6032 41.925 49.6031 41.8031 49.6031 41.6813Z" stroke="white" stroke-width="2" stroke-miterlimit="10"/>
<path d="M18.8906 43.1437L21.9375 46.1905L27.6656 40.4624" stroke="white" stroke-width="2" stroke-miterlimit="10"/>
<path d="M30.4687 53.5027L23.8875 58.0121H23.7656L17.1843 53.5027C13.7718 51.1871 11.7 47.2871 11.7 43.1434V33.6371C11.7 33.3934 11.8218 33.2715 12.0656 33.2715H35.5875C35.8312 33.2715 35.9531 33.3934 35.9531 33.6371V43.1434C35.9531 47.2871 33.8812 51.1871 30.4687 53.5027Z" stroke="white" stroke-width="2" stroke-miterlimit="10"/>
<path d="M23.7656 50.9436C27.9388 50.9436 31.3219 47.5605 31.3219 43.3873C31.3219 39.2141 27.9388 35.8311 23.7656 35.8311C19.5924 35.8311 16.2094 39.2141 16.2094 43.3873C16.2094 47.5605 19.5924 50.9436 23.7656 50.9436Z" stroke="white" stroke-width="2" stroke-miterlimit="10"/>
</svg>
