<svg width="31" height="31" viewBox="0 0 31 31" fill="none" xmlns="http://www.w3.org/2000/svg">
<path d="M19.5357 3.48276C19.5357 3.39438 19.464 3.33765 19.3757 3.33765H11.5595C11.4711 3.33765 11.3994 3.39438 11.3994 3.48276C11.3994 3.57113 11.4711 3.62787 11.5595 3.62787H19.3757C19.4628 3.62787 19.5357 3.57236 19.5357 3.48276Z" fill="#A6A6A6"/>
<path d="M13.5633 2.92563C13.6197 2.97939 13.7055 2.98577 13.7695 2.94101L15.4646 1.70807L17.0803 2.9397C17.1098 2.96016 17.1443 2.9717 17.1776 2.9717C17.2199 2.9717 17.2634 2.95378 17.2954 2.92178L18.5168 1.61847C18.5769 1.55317 18.5731 1.45202 18.5091 1.39187C18.4451 1.32911 18.344 1.33557 18.2825 1.39826L17.1597 2.59659L15.5644 1.38157C15.5081 1.33934 15.43 1.33804 15.3737 1.37903L13.6913 2.60297L12.5942 1.53009C12.5314 1.46994 12.429 1.46864 12.3676 1.53394C12.3061 1.59539 12.3074 1.69784 12.3701 1.7593L13.5633 2.92563Z" fill="#A6A6A6"/>
<path d="M15.5614 7.52958L17.0261 4.13804C17.0607 4.05736 17.0236 3.96268 16.9429 3.92683C16.8584 3.89099 16.7662 3.93068 16.7316 4.01136L15.4052 7.08024L13.9291 4.00621C13.8907 3.92683 13.7959 3.8923 13.7153 3.93068C13.6359 3.96783 13.6013 4.06382 13.6397 4.14319L15.2682 7.53473C15.2952 7.59103 15.3515 7.62564 15.4129 7.62564C15.4808 7.63326 15.5345 7.58849 15.5614 7.52958Z" fill="#A6A6A6"/>
<path d="M17.6777 9.63262C17.7504 9.51508 17.7984 9.37737 17.7984 9.22979V9.1811C17.7984 8.75731 17.4411 8.41637 17.0174 8.41637H16.76L21.1605 3.76331C21.3653 3.54564 21.3935 3.21515 21.2283 2.96672L19.4192 0.269689C19.3001 0.0917827 19.1004 0 18.8866 0H12.0831C11.8783 0 11.6849 0.0820603 11.5646 0.249736L9.60963 2.95439C9.43042 3.20275 9.45342 3.54347 9.6647 3.76752L14.0661 8.41644H13.9702C13.5464 8.41644 13.2273 8.75738 13.2273 9.18118V9.22986C13.2273 9.37744 13.2562 9.51522 13.3289 9.63269C8.41769 10.6435 4.70654 15.001 4.70654 20.2058C4.70654 26.1579 9.54513 30.9999 15.4972 30.9999C21.4506 30.9999 26.2935 26.1579 26.2935 20.2058C26.2936 14.9998 22.5892 10.6432 17.6777 9.63262ZM12.4109 1.23344H18.5448L19.8801 3.24396L15.4131 7.96783L10.9577 3.25629L12.4109 1.23344ZM15.4938 29.4649C10.3892 29.4649 6.23601 25.3103 6.23601 20.2058C6.23601 15.1012 10.3893 10.948 15.4938 10.948C20.5996 10.948 24.7516 15.1 24.7516 20.2058C24.7516 25.3116 20.5983 29.4649 15.4938 29.4649Z" fill="#A6A6A6"/>
<path d="M15.4938 11.8853C10.9052 11.8853 7.17188 15.6186 7.17188 20.2072C7.17188 24.7957 10.9051 28.5291 15.4938 28.5291C20.0824 28.5291 23.8157 24.7945 23.8157 20.2072C23.8157 15.6186 20.0823 11.8853 15.4938 11.8853ZM15.4938 27.2488C11.6106 27.2488 8.45212 24.089 8.45212 20.2072C8.45212 16.3254 11.6106 13.1656 15.4938 13.1656C19.3769 13.1656 22.5354 16.3241 22.5354 20.2072C22.5354 24.089 19.3769 27.2488 15.4938 27.2488Z" fill="#A6A6A6"/>
</svg>
