<svg width="78" height="78" viewBox="0 0 78 78" fill="none" xmlns="http://www.w3.org/2000/svg">
<path d="M66.3001 23.5217V20.2311C66.3001 20.1092 66.1782 19.9873 66.0563 19.9873H18.8907C18.7688 19.9873 18.647 20.1092 18.647 20.2311V23.5217" stroke="white" stroke-width="2" stroke-miterlimit="10"/>
<path d="M30.8345 58.0125H66.0563C66.1782 58.0125 66.3001 57.8906 66.3001 57.7688V27.0563C66.3001 26.9344 66.1782 26.8125 66.0563 26.8125H18.8907C18.7688 26.8125 18.647 26.9344 18.647 27.0563V31.2" stroke="white" stroke-width="2" stroke-miterlimit="10"/>
<path d="M60.6939 50.9438H55.697" stroke="white" stroke-width="2" stroke-miterlimit="10"/>
<path d="M53.2596 50.9438H48.2627" stroke="white" stroke-width="2" stroke-miterlimit="10"/>
<path d="M45.7032 50.9438H42.5344" stroke="white" stroke-width="2" stroke-miterlimit="10"/>
<path d="M49.6033 41.6813V35.5875C49.6033 35.4656 49.7251 35.3438 49.847 35.3438H59.3533C59.4751 35.3438 59.597 35.4656 59.597 35.5875V41.6813C59.597 41.8031 59.4751 41.925 59.3533 41.925H49.847C49.6033 41.925 49.6033 41.8031 49.6033 41.6813Z" stroke="white" stroke-width="2" stroke-miterlimit="10"/>
<path d="M23.0001 42.9408C23.3899 42.9408 23.7082 43.2583 23.7082 43.6481C23.7082 44.0037 23.9973 44.292 24.353 44.292C24.7078 44.292 24.9969 44.0037 24.9969 43.6481C24.9969 42.7743 24.4277 42.037 23.6441 41.7674V41.4019C23.6441 41.0471 23.3558 40.7572 23.0001 40.7572C22.6436 40.7572 22.3553 41.0471 22.3553 41.4019V41.7674C21.5717 42.037 21.0041 42.7743 21.0041 43.6481C21.0041 44.75 21.899 45.6449 23.0001 45.6449C23.3899 45.6449 23.7082 45.9632 23.7082 46.353C23.7082 46.7436 23.3899 47.0611 23.0001 47.0611C22.6103 47.0611 22.2928 46.7436 22.2928 46.353C22.2928 45.9973 22.0037 45.7082 21.6481 45.7082C21.2916 45.7082 21.0041 45.9973 21.0041 46.353C21.0041 47.2267 21.5717 47.9633 22.3553 48.2329V48.5983C22.3553 48.9548 22.6436 49.2439 23.0001 49.2439C23.3558 49.2439 23.6441 48.9548 23.6441 48.5983V48.2329C24.4277 47.9633 24.9969 47.2267 24.9969 46.353C24.9969 45.2518 24.1013 44.3562 23.0001 44.3562C22.6103 44.3562 22.2928 44.0386 22.2928 43.6481C22.2928 43.2583 22.6103 42.9408 23.0001 42.9408ZM28.3994 48.5788C28.7153 48.7453 29.1043 48.6243 29.2699 48.3108C29.8059 47.2982 30.0885 46.1532 30.0885 45.0001C30.0885 41.0925 26.9077 37.9126 23.0001 37.9126C19.0917 37.9126 15.9117 41.0925 15.9117 45.0001C15.9117 48.9085 19.0917 52.0885 23.0001 52.0885C24.1362 52.0885 25.2649 51.814 26.2645 51.2935C26.5804 51.1303 26.7031 50.7397 26.539 50.4246C26.375 50.1103 25.986 49.9853 25.6693 50.1501C24.8418 50.5821 23.9429 50.8006 23.0001 50.8006C19.8023 50.8006 17.1997 48.1988 17.1997 45.0001C17.1997 41.8031 19.8023 39.2005 23.0001 39.2005C26.198 39.2005 28.8006 41.8031 28.8006 45.0001C28.8006 45.9445 28.5683 46.8808 28.1314 47.7075C27.9642 48.0226 28.0843 48.4123 28.3994 48.5788ZM23.0001 35.3335C21.1332 35.3335 19.3207 35.8678 17.7592 36.8772C17.4595 37.0705 17.3742 37.4692 17.5675 37.768C17.7616 38.0668 18.1587 38.1513 18.4591 37.9597C19.8104 37.0859 21.3825 36.623 23.0001 36.623C27.6199 36.623 31.3772 40.3812 31.3772 45.0001C31.3772 49.6199 27.6199 53.378 23.0001 53.378C18.3804 53.378 14.6222 49.6199 14.6222 45.0001C14.6222 43.3979 15.0762 41.8396 15.9361 40.4957C16.1278 40.1952 16.0401 39.7965 15.7396 39.6049C15.4399 39.4132 15.0412 39.5009 14.8504 39.8006C13.8581 41.3524 13.3335 43.1519 13.3335 45.0001C13.3335 50.3312 17.669 54.6667 23.0001 54.6667C28.3304 54.6667 32.6667 50.3312 32.6667 45.0001C32.6667 39.6706 28.3304 35.3335 23.0001 35.3335Z" fill="white"/>
</svg>
