<svg width="28" height="28" viewBox="0 0 28 28" fill="none" xmlns="http://www.w3.org/2000/svg">
<g clip-path="url(#clip0_1135_3922)">
<path fill-rule="evenodd" clip-rule="evenodd" d="M15.5374 0.88156C15.5133 0.763981 15.4154 0.675923 15.2956 0.664438C14.4338 0.580767 13.5664 0.580767 12.7046 0.664438C12.5848 0.675923 12.4869 0.763981 12.4628 0.88156L12.0828 2.73218C11.3817 2.85139 10.6937 3.0357 10.0265 3.28288L8.77198 1.8703C8.69269 1.78061 8.56362 1.75327 8.45479 1.80304C7.6662 2.16179 6.9148 2.59546 6.20987 3.09913C6.11253 3.16858 6.07151 3.29382 6.10979 3.40757L6.70589 5.20078C6.15846 5.65414 5.65425 6.15836 5.20089 6.70578L3.40769 6.10968C3.29394 6.0714 3.1687 6.11242 3.09925 6.20976C2.59558 6.91468 2.1619 7.66609 1.80315 8.45468C1.75339 8.56351 1.78073 8.69256 1.87042 8.77186L3.28355 10.0264C3.03636 10.693 2.85151 11.3816 2.73229 12.0826L0.881668 12.4627C0.76409 12.4868 0.676045 12.5847 0.664561 12.7039C0.580889 13.5663 0.580889 14.4337 0.664561 15.2961C0.676045 15.4153 0.76409 15.5132 0.881668 15.5373L2.73229 15.9173C2.85151 16.6184 3.03636 17.3069 3.28355 17.9736L1.87042 19.2281C1.78073 19.3074 1.75339 19.4365 1.80315 19.5458C2.1619 20.3339 2.59558 21.0853 3.09925 21.7902C3.1687 21.8876 3.29394 21.9286 3.40769 21.8903L5.20089 21.2942C5.65425 21.8416 6.15846 22.3458 6.70589 22.7992L6.10979 24.5924C6.07151 24.7062 6.11253 24.8314 6.20987 24.9009C6.9148 25.4045 7.6662 25.8382 8.45479 26.1969C8.56362 26.2467 8.69269 26.2194 8.77198 26.1297L10.0265 24.7171C10.6937 24.9643 11.3817 25.1486 12.0828 25.2678L12.4628 27.1184C12.4869 27.236 12.5848 27.3241 12.7046 27.3355C13.5664 27.4192 14.4338 27.4192 15.2956 27.3355C15.4154 27.3241 15.5133 27.236 15.5374 27.1184L15.9175 25.2678C16.6185 25.1486 17.3065 24.9643 17.9737 24.7171L19.2282 26.1297C19.3075 26.2194 19.4366 26.2467 19.5454 26.1969C20.334 25.8382 21.0854 25.4045 21.7903 24.9009C21.8877 24.8314 21.9287 24.7062 21.8904 24.5924L21.2943 22.7992C21.8417 22.3458 22.346 21.8416 22.7993 21.2942L24.5925 21.8903C24.7063 21.9286 24.8315 21.8876 24.901 21.7902C25.4046 21.0853 25.8389 20.3339 26.1971 19.5458C26.2468 19.4365 26.2195 19.3074 26.1298 19.2281L24.7172 17.9736C24.9644 17.3069 25.1487 16.6184 25.2679 15.9173L27.1185 15.5373C27.2361 15.5132 27.3242 15.4153 27.3357 15.2961C27.4193 14.4337 27.4193 13.5663 27.3357 12.7039C27.3242 12.5847 27.2361 12.4868 27.1185 12.4627L25.2679 12.0826C25.1487 11.3816 24.9644 10.693 24.7172 10.0264L26.1298 8.77186C26.2195 8.69256 26.2468 8.56351 26.1971 8.45468C25.8389 7.66609 25.4046 6.91468 24.901 6.20976C24.8315 6.11242 24.7063 6.0714 24.5925 6.10968L22.7993 6.70578C22.346 6.15836 21.8417 5.65414 21.2943 5.20078L21.8904 3.40757C21.9287 3.29382 21.8877 3.16858 21.7903 3.09913C21.0854 2.59546 20.334 2.16179 19.5454 1.80304C19.4366 1.75327 19.3075 1.78061 19.2282 1.8703L17.9737 3.28288C17.3065 3.0357 16.6185 2.85139 15.9175 2.73218L15.5374 0.88156ZM15.0425 1.19054L15.4198 3.02695C15.4428 3.13906 15.533 3.22491 15.6462 3.24241C16.4359 3.36327 17.2092 3.57054 17.9535 3.86039C18.0601 3.90195 18.181 3.87296 18.257 3.78765L19.5022 2.38547C20.1311 2.68351 20.7349 3.03241 21.3074 3.42835L20.7163 5.20733C20.6796 5.31561 20.7152 5.43538 20.8043 5.50647C21.4278 6.00577 21.9943 6.57234 22.4936 7.19578C22.5647 7.28492 22.6845 7.32046 22.7933 7.28436L24.5717 6.69264C24.9677 7.26522 25.3166 7.86897 25.6146 8.49788L24.213 9.74311C24.1271 9.81913 24.0982 9.93999 24.1397 10.0466C24.4296 10.7909 24.6368 11.5648 24.7577 12.3539C24.7752 12.4671 24.861 12.5573 24.9732 12.5803L26.8096 12.9576C26.8659 13.6511 26.8659 14.3489 26.8096 15.0423L24.9732 15.4197C24.861 15.4426 24.7752 15.5329 24.7577 15.6461C24.6368 16.4352 24.4296 17.2091 24.1397 17.9534C24.0982 18.06 24.1271 18.1809 24.213 18.2569L25.6146 19.5021C25.3166 20.131 24.9677 20.7348 24.5717 21.3073L22.7933 20.7162C22.6845 20.6795 22.5647 20.7151 22.4936 20.8042C21.9943 21.4276 21.4278 21.9942 20.8043 22.4935C20.7152 22.5646 20.6796 22.6844 20.7163 22.7927L21.3074 24.5716C20.7349 24.9676 20.1311 25.3165 19.5022 25.6145L18.257 24.2123C18.181 24.127 18.0601 24.098 17.9535 24.1396C17.2092 24.4294 16.4359 24.6367 15.6462 24.7576C15.533 24.7751 15.4428 24.8609 15.4198 24.973L15.0425 26.8094C14.349 26.8658 13.6512 26.8658 12.9578 26.8094L12.5804 24.973C12.5575 24.8609 12.4672 24.7751 12.354 24.7576C11.5643 24.6367 10.791 24.4294 10.0467 24.1396C9.9401 24.098 9.81925 24.127 9.74323 24.2123L8.498 25.6145C7.86909 25.3165 7.26534 24.9676 6.69276 24.5716L7.28393 22.7927C7.32057 22.6844 7.28503 22.5646 7.19588 22.4935C6.57245 21.9942 6.00588 21.4276 5.50659 20.8042C5.43549 20.7151 5.31573 20.6795 5.2069 20.7162L3.42846 21.3073C3.03252 20.7348 2.68362 20.131 2.38557 19.5021L3.78776 18.2569C3.87308 18.1809 3.90206 18.06 3.86049 17.9534C3.57065 17.2091 3.36339 16.4352 3.24253 15.6461C3.22503 15.5329 3.13917 15.4426 3.02706 15.4197L1.19065 15.0423C1.13433 14.3489 1.13433 13.6511 1.19065 12.9576L3.02706 12.5803C3.13917 12.5573 3.22503 12.4671 3.24253 12.3539C3.36339 11.5648 3.57065 10.7909 3.86049 10.0466C3.90206 9.93999 3.87308 9.81913 3.78776 9.74311L2.38557 8.49788C2.68362 7.86897 3.03252 7.26522 3.42846 6.69264L5.2069 7.28436C5.31573 7.32046 5.43549 7.28492 5.50659 7.19578C6.00588 6.57234 6.57245 6.00577 7.19588 5.50647C7.28503 5.43538 7.32057 5.31561 7.28393 5.20733L6.69276 3.42835C7.26534 3.03241 7.86909 2.68351 8.498 2.38547L9.74323 3.78765C9.81925 3.87296 9.9401 3.90195 10.0467 3.86039C10.791 3.57054 11.5643 3.36327 12.354 3.24241C12.4672 3.22491 12.5575 3.13906 12.5804 3.02695L12.9578 1.19054C13.6512 1.13421 14.349 1.13421 15.0425 1.19054ZM14.0001 6.17968C9.68417 6.17968 6.17979 9.68405 6.17979 14C6.17979 18.3159 9.68417 21.8203 14.0001 21.8203C18.316 21.8203 21.8204 18.3159 21.8204 14C21.8204 9.68405 18.316 6.17968 14.0001 6.17968ZM14.0001 6.72655C18.0142 6.72655 21.2735 9.98593 21.2735 14C21.2735 18.0146 18.0142 21.2734 14.0001 21.2734C9.98604 21.2734 6.72667 18.0146 6.72667 14C6.72667 9.98593 9.98604 6.72655 14.0001 6.72655ZM14.0001 7.44733C10.3836 7.44733 7.44745 10.3835 7.44745 14C7.44745 17.6165 10.3836 20.5527 14.0001 20.5527C17.6166 20.5527 20.5528 17.6165 20.5528 14C20.5528 10.3835 17.6166 7.44733 14.0001 7.44733ZM14.0001 7.99421C17.3147 7.99421 20.0059 10.6854 20.0059 14C20.0059 17.3146 17.3147 20.0058 14.0001 20.0058C10.6855 20.0058 7.99433 17.3146 7.99433 14C7.99433 10.6854 10.6855 7.99421 14.0001 7.99421ZM17.2343 15.4552C17.2343 14.7011 16.6218 14.0891 15.8677 14.0891H12.1325C11.3784 14.0891 10.7659 14.7011 10.7659 15.4552V18.0425C10.7659 18.194 10.8884 18.3159 11.0393 18.3159H16.9609C17.1118 18.3159 17.2343 18.194 17.2343 18.0425V15.4552ZM15.8994 17.769H16.6875V15.4552C16.6875 15.003 16.32 14.636 15.8677 14.636H12.1325C11.6803 14.636 11.3128 15.003 11.3128 15.4552V17.769H12.1008V16.894C12.1008 16.7431 12.2233 16.6206 12.3742 16.6206C12.5252 16.6206 12.6477 16.7431 12.6477 16.894V17.769H15.3525V16.894C15.3525 16.7431 15.475 16.6206 15.626 16.6206C15.7769 16.6206 15.8994 16.7431 15.8994 16.894V17.769ZM14.0001 9.68406C12.8117 9.68406 11.8465 10.6487 11.8465 11.8371C11.8465 13.026 12.8117 13.9907 14.0001 13.9907C15.1885 13.9907 16.1537 13.026 16.1537 11.8371C16.1537 10.6487 15.1885 9.68406 14.0001 9.68406ZM14.0001 10.2309C14.8866 10.2309 15.6068 10.9506 15.6068 11.8371C15.6068 12.7241 14.8866 13.4438 14.0001 13.4438C13.1136 13.4438 12.3934 12.7241 12.3934 11.8371C12.3934 10.9506 13.1136 10.2309 14.0001 10.2309Z" fill="#969696" stroke="#969696" stroke-width="0.5"/>
</g>
<defs>
<clipPath id="clip0_1135_3922">
<rect width="28" height="28" fill="white"/>
</clipPath>
</defs>
</svg>
