<svg width="41" height="91" viewBox="0 0 41 91" fill="none" xmlns="http://www.w3.org/2000/svg">
<g clip-path="url(#clip0_762_1199)">
<path d="M4.93561 43.294C3.54715 41.6854 1.86785 40.3969 3.22691e-05 39.5068C0.472024 41.6405 1.34478 43.6485 2.56495 45.4082C3.58582 46.7852 5.02741 47.7312 6.63531 48.0793C6.61432 46.3196 6.01244 44.6249 4.9366 43.2962L4.93561 43.294Z" fill="url(#paint0_linear_762_1199)"/>
<path d="M8.20717 40.3729C7.13133 41.7017 6.52945 43.3964 6.50846 45.1561C8.1165 44.8077 9.55811 43.8613 10.5788 42.4839C11.799 40.7242 12.6717 38.7162 13.1437 36.5825C11.2759 37.4726 9.59662 38.7611 8.20816 40.3697L8.20717 40.3729Z" fill="url(#paint1_linear_762_1199)"/>
<path d="M5.77504 51.605C4.14669 50.2793 2.28407 49.3224 0.300309 48.7925C1.10978 50.8055 2.29385 52.6201 3.77999 54.1252C5.00779 55.2911 6.58055 55.9538 8.22003 55.9959C7.91289 54.2682 7.04574 52.7128 5.77206 51.605H5.77504Z" fill="url(#paint2_linear_762_1199)"/>
<path d="M8.52034 48.1142C7.67861 49.6225 7.36027 51.4011 7.62143 53.1365C9.14776 52.496 10.4137 51.2972 11.1953 49.7521C12.1107 47.7919 12.6448 45.6524 12.7651 43.4639C11.0702 44.6895 9.62505 46.2715 8.51737 48.1142H8.52034Z" fill="url(#paint3_linear_762_1199)"/>
<path d="M7.93957 59.6226C6.12254 58.6195 4.13392 58.0242 2.09517 57.873C3.21919 59.7039 4.67855 61.2704 6.38457 62.4776C7.78244 63.3979 9.43876 63.7582 11.0605 63.4948C10.478 61.8509 9.37265 60.4805 7.93957 59.6258V59.6226Z" fill="url(#paint4_linear_762_1199)"/>
<path d="M10.0813 55.678C9.49495 57.3212 9.47003 59.1339 10.0109 60.7949C11.4118 59.8801 12.4652 58.4627 12.9842 56.7941C13.5685 54.6928 13.7478 52.4861 13.5114 50.3081C12.0401 51.8298 10.873 53.6569 10.0813 55.678Z" fill="url(#paint5_linear_762_1199)"/>
<path d="M11.3716 67.1214C9.41936 66.4712 7.36405 66.2542 5.33101 66.4837C6.73269 68.0812 8.42362 69.355 10.3003 70.2273C11.827 70.8712 13.5168 70.916 15.0714 70.3538C14.2324 68.8426 12.9217 67.6987 11.3716 67.1246V67.1214Z" fill="url(#paint6_linear_762_1199)"/>
<path d="M12.8404 62.8391C12.5285 64.566 12.7971 66.3555 13.5986 67.8901C14.8303 66.7272 15.6388 65.1346 15.8811 63.394C16.117 61.2166 15.9369 59.0105 15.3518 56.9102C14.1479 58.6823 13.2934 60.6989 12.8404 62.837V62.8391Z" fill="url(#paint7_linear_762_1199)"/>
<path d="M15.9733 73.8723C13.9474 73.5967 11.8903 73.7667 9.92768 74.3719C11.5647 75.679 13.4329 76.6146 15.4183 77.1217C17.0253 77.472 18.696 77.2025 20.1358 76.3606C19.0636 75.0296 17.5877 74.1473 15.9683 73.8692L15.9733 73.8723Z" fill="url(#paint8_linear_762_1199)"/>
<path d="M16.7215 69.373C16.6947 71.132 17.2483 72.8446 18.2845 74.2083C19.3094 72.8345 19.8476 71.1159 19.8038 69.3571C19.6822 67.1681 19.1464 65.0286 18.229 63.0688C17.333 65.0388 16.8201 67.1837 16.7215 69.373Z" fill="url(#paint9_linear_762_1199)"/>
<path d="M21.5838 79.6498C19.5419 79.7577 17.5418 80.3091 15.7047 81.2708C17.5324 82.2541 19.5277 82.828 21.5689 82.9576C23.2081 83.0052 24.8101 82.4291 26.0912 81.3314C24.8206 80.2183 23.2241 79.6228 21.5838 79.6498Z" fill="url(#paint10_linear_762_1199)"/>
<path d="M21.5996 75.0859C21.8575 76.8245 22.68 78.4094 23.9217 79.5608C24.7071 78.016 24.9584 76.2233 24.6313 74.4991C24.1595 72.3669 23.287 70.3603 22.0674 68.6021C21.5023 70.7068 21.3432 72.913 21.5996 75.0859Z" fill="url(#paint11_linear_762_1199)"/>
<path d="M28.0515 84.3056C26.0581 84.7908 24.1778 85.7066 22.5253 86.997C24.4837 87.6243 26.5406 87.8174 28.5709 87.5646C30.1931 87.3053 31.6776 86.4394 32.7621 85.1198C31.3312 84.2603 29.6627 83.9722 28.0525 84.3067L28.0515 84.3056Z" fill="url(#paint12_linear_762_1199)"/>
<path d="M27.3312 79.8139C27.8664 81.4737 28.9315 82.8772 30.3381 83.7765C30.8607 82.1086 30.8172 80.2964 30.2152 78.6596C29.4054 76.648 28.2217 74.8346 26.7365 73.3301C26.5226 75.5105 26.7249 77.7148 27.3312 79.8086V79.8139Z" fill="url(#paint13_linear_762_1199)"/>
<path d="M33.6829 87.2118C31.7988 88.0621 30.0957 89.3144 28.6769 90.8927C30.7071 91.146 32.7641 90.9533 34.7225 90.3261C36.2782 89.7706 37.6002 88.642 38.4539 87.1405C36.9052 86.5604 35.215 86.5872 33.6829 87.216V87.2118Z" fill="url(#paint14_linear_762_1199)"/>
<path d="M33.7354 83.3928C34.5329 84.9286 35.8105 86.1129 37.3429 86.7368C37.5885 84.9975 37.2525 83.2211 36.3944 81.7219C35.2688 79.8922 33.8081 78.3271 32.1011 77.1216C32.2416 79.3092 32.7967 81.4431 33.7324 83.3928H33.7354Z" fill="url(#paint15_linear_762_1199)"/>
<path d="M30.4034 0.400879C29.0118 0.563514 27.6657 1.02823 26.447 1.76673C25.4872 2.39202 24.7649 3.3617 24.4083 4.50376C25.5237 4.63635 26.6468 4.34236 27.5798 3.67362C28.7185 2.79972 29.6792 1.68616 30.4034 0.400879Z" fill="url(#paint16_linear_762_1199)"/>
<path d="M22.9257 4.81422C23.3258 3.4322 23.459 1.97719 23.3171 0.538086C22.337 1.53182 21.5554 2.7288 21.0198 4.05636C20.6234 5.1368 20.595 6.33256 20.9395 7.43327C21.8701 6.83919 22.5749 5.91157 22.9296 4.81422H22.9257Z" fill="url(#paint17_linear_762_1199)"/>
<path d="M25.5679 5.85485C24.5055 5.63381 23.4045 5.82202 22.4589 6.38632C23.1742 7.25876 24.1538 7.83211 25.225 8.00515C26.5652 8.17183 27.9231 8.04454 29.2161 7.631C28.1254 6.77876 26.884 6.17437 25.5679 5.85485Z" fill="url(#paint18_linear_762_1199)"/>
<path d="M18.5282 8.44706C18.7151 6.85475 18.5985 5.23831 18.1853 3.6958C17.294 4.98313 16.6561 6.45135 16.3102 8.01127C16.0696 9.27224 16.2532 10.5839 16.8285 11.7134C17.7365 10.8729 18.3382 9.71522 18.5273 8.44494L18.5282 8.44706Z" fill="url(#paint19_linear_762_1199)"/>
<path d="M21.5927 9.03485C20.3923 9.01467 19.2238 9.44984 18.2934 10.2636C19.2309 11.0661 20.4024 11.4881 21.6016 11.4551C23.0939 11.3597 24.5526 10.9398 25.889 10.2211C24.5461 9.51616 23.0831 9.11252 21.5897 9.03485H21.5927Z" fill="url(#paint20_linear_762_1199)"/>
<path d="M14.445 12.8457C14.3587 10.913 13.9054 9.01952 13.113 7.28125C12.3037 9.00962 11.8316 10.8969 11.7255 12.8276C11.6856 14.3793 12.1601 15.896 13.0644 17.108C13.9799 15.9052 14.469 14.3938 14.445 12.8414V12.8457Z" fill="url(#paint21_linear_762_1199)"/>
<path d="M18.2022 12.8552C16.7722 13.0979 15.4687 13.8764 14.5233 15.0523C15.7936 15.7953 17.2681 16.0325 18.6858 15.7219C20.4415 15.2753 22.0939 14.4496 23.5421 13.2953C21.8085 12.7612 19.9915 12.6115 18.2022 12.8552Z" fill="url(#paint22_linear_762_1199)"/>
<path d="M10.4727 19.2105C10.0203 17.0726 9.16651 15.056 7.96332 13.2837C7.37821 15.384 7.19813 17.5901 7.43408 19.7675C7.67605 21.5069 8.48342 23.0987 9.71357 24.2616C10.5146 22.7275 10.7832 20.9388 10.4717 19.2127L10.4727 19.2105Z" fill="url(#paint23_linear_762_1199)"/>
<path d="M14.668 18.4348C13.1179 19.0089 11.8073 20.1528 10.9683 21.664C12.5228 22.2262 14.2126 22.1814 15.7393 21.5375C17.6155 20.6661 19.3063 19.3938 20.7086 17.7981C18.6756 17.5687 16.6203 17.7846 14.668 18.4348Z" fill="url(#paint24_linear_762_1199)"/>
<path d="M3.89495 21.4829C3.65812 23.6602 3.83752 25.8663 4.42221 27.9667C4.94118 29.6354 5.99457 31.0528 7.39545 31.9676C7.93594 30.306 7.91031 28.4928 7.3231 26.8496C6.53131 24.83 5.36498 23.0042 3.89495 21.4829Z" fill="url(#paint25_linear_762_1199)"/>
<path d="M11.3271 25.304C9.89398 26.1588 8.78861 27.5291 8.20615 29.1731C9.82788 29.4364 11.4842 29.0761 12.8821 28.1559C14.5892 26.949 16.0496 25.3824 17.1744 23.5513C15.1347 23.702 13.145 24.2974 11.3271 25.3008V25.304Z" fill="url(#paint26_linear_762_1199)"/>
<path d="M5.46285 34.9618C4.35546 33.1193 2.91066 31.5372 1.21608 30.3115C1.3352 32.4998 1.86796 34.6392 2.78198 36.5998C3.56454 38.1456 4.83197 39.3445 6.35978 39.9841C6.62014 38.2483 6.30074 36.4697 5.4579 34.9618H5.46285Z" fill="url(#paint27_linear_762_1199)"/>
<path d="M9.15361 32.6914C7.87993 33.7993 7.01278 35.3547 6.70564 37.0823C8.34512 37.0402 9.91789 36.3776 11.1457 35.2116C12.6317 33.7063 13.8157 31.8918 14.6254 29.8789C12.6416 30.4088 10.779 31.3657 9.15064 32.6914H9.15361Z" fill="url(#paint28_linear_762_1199)"/>
<path d="M4.93561 42.8946C3.54715 41.286 1.86785 39.9975 3.22691e-05 39.1074C0.472024 41.2411 1.34478 43.2491 2.56495 45.0088C3.58582 46.3858 5.02741 47.3318 6.63531 47.6799C6.61432 45.9202 6.01244 44.2255 4.9366 42.8967L4.93561 42.8946Z" fill="url(#paint29_linear_762_1199)"/>
<path d="M8.20717 39.9735C7.13133 41.3023 6.52945 42.997 6.50846 44.7566C8.1165 44.4083 9.55811 43.4619 10.5788 42.0845C11.799 40.3248 12.6717 38.3168 13.1437 36.1831C11.2759 37.0731 9.59662 38.3617 8.20816 39.9703L8.20717 39.9735Z" fill="url(#paint30_linear_762_1199)"/>
<path d="M5.77504 51.2041C4.14669 49.8784 2.28407 48.9215 0.300309 48.3916C1.10978 50.4046 2.29385 52.2192 3.77999 53.7243C5.00779 54.8903 6.58055 55.5529 8.22003 55.595C7.91289 53.8674 7.04574 52.312 5.77206 51.2041H5.77504Z" fill="url(#paint31_linear_762_1199)"/>
<path d="M8.52034 47.7147C7.67853 49.2231 7.36019 51.0017 7.62143 52.7371C9.14781 52.0967 10.4138 50.8978 11.1953 49.3527C12.1107 47.3924 12.6448 45.253 12.7651 43.0645C11.0702 44.29 9.62505 45.8721 8.51737 47.7147H8.52034Z" fill="url(#paint32_linear_762_1199)"/>
<path d="M7.93957 59.2252C6.12254 58.2221 4.13392 57.6268 2.09517 57.4756C3.21919 59.3064 4.67855 60.873 6.38457 62.0802C7.78244 63.0004 9.43876 63.3607 11.0605 63.0974C10.478 61.4534 9.37265 60.0831 7.93957 59.2283V59.2252Z" fill="url(#paint33_linear_762_1199)"/>
<path d="M10.0813 55.2815C9.49495 56.9247 9.47003 58.7374 10.0109 60.3984C11.4118 59.4837 12.4652 58.0662 12.9842 56.3976C13.5685 54.2964 13.7478 52.0896 13.5114 49.9116C12.0401 51.4334 10.873 53.2604 10.0813 55.2815Z" fill="url(#paint34_linear_762_1199)"/>
<path d="M11.3716 66.724C9.41936 66.0738 7.36405 65.8568 5.33101 66.0862C6.73269 67.6837 8.42362 68.9576 10.3003 69.8298C11.827 70.4737 13.5168 70.5185 15.0714 69.9563C14.2324 68.4452 12.9217 67.3012 11.3716 66.7272V66.724Z" fill="url(#paint35_linear_762_1199)"/>
<path d="M12.8404 62.4383C12.5285 64.1651 12.7971 65.9546 13.5986 67.4893C14.8303 66.3263 15.6388 64.7337 15.8811 62.9931C16.117 60.8157 15.9369 58.6096 15.3518 56.5093C14.1479 58.2814 13.2934 60.298 12.8404 62.4361V62.4383Z" fill="url(#paint36_linear_762_1199)"/>
<path d="M15.9733 73.4753C13.9474 73.1991 11.8904 73.3688 9.92768 73.9738C11.5654 75.2796 13.4334 76.215 15.4183 76.7236C17.0253 77.0739 18.696 76.8044 20.1358 75.9625C19.0635 74.6319 17.5876 73.75 15.9683 73.4721L15.9733 73.4753Z" fill="url(#paint37_linear_762_1199)"/>
<path d="M16.7215 68.9751C16.6947 70.7341 17.2483 72.4466 18.2845 73.8103C19.3094 72.4365 19.8476 70.7179 19.8038 68.9591C19.6822 66.7702 19.1464 64.6306 18.229 62.6709C17.3323 64.6407 16.8187 66.7856 16.7196 68.9751H16.7215Z" fill="url(#paint38_linear_762_1199)"/>
<path d="M21.5838 79.2568C19.542 79.3627 17.5417 79.9131 15.7047 80.8746C17.5324 81.8579 19.5277 82.4318 21.5689 82.5614C23.2081 82.6091 24.8101 82.0329 26.0912 80.9352C24.8202 79.8233 23.2237 79.2289 21.5838 79.2568Z" fill="url(#paint39_linear_762_1199)"/>
<path d="M21.5996 74.685C21.8575 76.4236 22.68 78.0085 23.9217 79.1599C24.7071 77.6151 24.9584 75.8224 24.6313 74.0983C24.1581 71.9665 23.2858 69.9602 22.0674 68.2012C21.5023 70.3059 21.3432 72.5121 21.5996 74.685Z" fill="url(#paint40_linear_762_1199)"/>
<path d="M28.0515 83.9077C26.0581 84.3929 24.1778 85.3086 22.5253 86.599C24.4836 87.2265 26.5406 87.4197 28.5709 87.1666C30.1931 86.9073 31.6776 86.0414 32.7621 84.7219C31.3312 83.8623 29.6627 83.5742 28.0525 83.9088L28.0515 83.9077Z" fill="url(#paint41_linear_762_1199)"/>
<path d="M27.3312 79.414C27.8664 81.0738 28.9315 82.4773 30.3381 83.3766C30.8607 81.7087 30.8172 79.8965 30.2152 78.2597C29.4054 76.2481 28.2217 74.4347 26.7365 72.9302C26.5226 75.1106 26.7249 77.3149 27.3312 79.4087V79.414Z" fill="url(#paint42_linear_762_1199)"/>
<path d="M33.6829 86.8184C31.7988 87.6687 30.0957 88.9211 28.6769 90.4993C30.7071 90.7519 32.7641 90.5588 34.7225 89.9317C36.2784 89.3758 37.6004 88.2469 38.4539 86.745C36.9052 86.1649 35.215 86.1917 33.6829 86.8205V86.8184Z" fill="url(#paint43_linear_762_1199)"/>
<path d="M33.7354 82.9929C34.5329 84.5287 35.8105 85.713 37.3429 86.3369C37.5885 84.5976 37.2525 82.8212 36.3944 81.322C35.2688 79.4923 33.8081 77.9272 32.1011 76.7217C32.2416 78.9093 32.7967 81.0432 33.7324 82.9929H33.7354Z" fill="url(#paint44_linear_762_1199)"/>
<path d="M30.4034 0C29.0118 0.162635 27.6657 0.627355 26.447 1.36586C25.4872 1.99114 24.7649 2.96082 24.4083 4.10288C25.5237 4.23547 26.6468 3.94148 27.5798 3.27274C28.7186 2.39902 29.6794 1.28542 30.4034 0Z" fill="url(#paint45_linear_762_1199)"/>
<path d="M22.9267 4.41432C23.3268 3.0323 23.46 1.57728 23.3182 0.138184C22.3373 1.13171 21.5551 2.32871 21.0188 3.65646C20.6225 4.7369 20.594 5.93266 20.9386 7.03336C21.8695 6.43947 22.5747 5.51183 22.9296 4.41432H22.9267Z" fill="url(#paint46_linear_762_1199)"/>
<path d="M25.5679 5.45495C24.5055 5.23391 23.4045 5.42212 22.4589 5.98641C23.1742 6.85885 24.1538 7.43221 25.225 7.60525C26.5652 7.77379 27.9234 7.64646 29.2161 7.2311C28.1254 6.37886 26.884 5.77446 25.5679 5.45495Z" fill="url(#paint47_linear_762_1199)"/>
<path d="M18.5282 8.0496C18.7151 6.45729 18.5985 4.84085 18.1853 3.29834C17.294 4.58567 16.6561 6.05389 16.3102 7.61381C16.0696 8.87478 16.2532 10.1864 16.8285 11.316C17.7365 10.4755 18.3382 9.31776 18.5273 8.04748L18.5282 8.0496Z" fill="url(#paint48_linear_762_1199)"/>
<path d="M21.5927 8.63397C20.3923 8.61379 19.2238 9.04896 18.2934 9.86271C19.231 10.6649 20.4026 11.0864 21.6016 11.0532C23.094 10.9581 24.5527 10.5382 25.889 9.81913C24.546 9.11439 23.0831 8.7111 21.5897 8.63397H21.5927Z" fill="url(#paint49_linear_762_1199)"/>
<path d="M14.445 12.4501C14.3587 10.5175 13.9054 8.62401 13.113 6.88574C12.3053 8.6144 11.8333 10.5009 11.7255 12.431C11.6856 13.9828 12.1601 15.4994 13.0644 16.7114C13.9799 15.5086 14.469 13.9972 14.445 12.4448V12.4501Z" fill="url(#paint50_linear_762_1199)"/>
<path d="M18.2022 12.4584C16.7722 12.7011 15.4687 13.4796 14.5233 14.6555C15.7936 15.3986 17.2681 15.6358 18.6858 15.3251C20.4415 14.878 22.0939 14.0519 23.5421 12.8974C21.8084 12.3639 19.9915 12.2146 18.2022 12.4584Z" fill="url(#paint51_linear_762_1199)"/>
<path d="M10.4727 18.8136C10.0203 16.6756 9.16651 14.659 7.96332 12.8867C7.37821 14.987 7.19813 17.1932 7.43408 19.3705C7.67605 21.11 8.48342 22.7017 9.71357 23.8646C10.5146 22.3306 10.7832 20.5419 10.4717 18.8157L10.4727 18.8136Z" fill="url(#paint52_linear_762_1199)"/>
<path d="M14.663 18.0344C13.1148 18.6096 11.806 19.7534 10.9683 21.2636C12.5228 21.8258 14.2126 21.781 15.7393 21.1371C17.6157 20.2661 19.3066 18.9937 20.7086 17.3978C18.6756 17.1683 16.6203 17.3853 14.668 18.0355L14.663 18.0344Z" fill="url(#paint53_linear_762_1199)"/>
<path d="M7.32706 26.4563C6.5343 24.4353 5.3666 22.6083 3.89495 21.0864C3.65839 23.2637 3.83778 25.4698 4.4222 27.5703C4.94117 29.2389 5.99457 30.6563 7.39544 31.5711C7.93521 29.9105 7.90958 28.0986 7.32309 26.4563H7.32706Z" fill="url(#paint54_linear_762_1199)"/>
<path d="M11.3271 24.9066C9.89398 25.7613 8.78861 27.1316 8.20615 28.7756C9.82788 29.039 11.4842 28.6786 12.8821 27.7584C14.5892 26.5515 16.0496 24.9849 17.1744 23.1538C15.1347 23.3046 13.145 23.8999 11.3271 24.9034V24.9066Z" fill="url(#paint55_linear_762_1199)"/>
<path d="M5.46285 34.5643C4.35546 32.7218 2.91066 31.1398 1.21608 29.9141C1.3352 32.1023 1.86796 34.2417 2.78198 36.2023C3.56454 37.7481 4.83197 38.947 6.35978 39.5867C6.62014 37.8509 6.30074 36.0723 5.4579 34.5643H5.46285Z" fill="url(#paint56_linear_762_1199)"/>
<path d="M9.15361 32.2939C7.87993 33.4018 7.01278 34.9572 6.70564 36.6849C8.34512 36.6428 9.91789 35.9801 11.1457 34.8141C12.6317 33.3089 13.8157 31.4943 14.6254 29.4814C12.6416 30.0114 10.779 30.9682 9.15064 32.2939H9.15361Z" fill="url(#paint57_linear_762_1199)"/>
<path d="M41 86.845C41 86.845 40.6036 86.7632 39.8949 86.5921C39.1863 86.4209 38.1318 86.1424 36.8226 85.7088C33.1957 84.5069 29.7347 82.7911 26.5312 80.6067C24.3897 79.1485 22.3732 77.4891 20.5054 75.6482C18.4188 73.5931 16.5266 71.3219 14.8563 68.8678C13.0664 66.2423 11.5421 63.4199 10.3092 60.4484C9.03483 57.3767 8.0793 54.164 7.45986 50.8683C6.84202 47.5686 6.56088 44.2067 6.62141 40.8417C6.67534 37.583 7.05141 34.3396 7.74331 31.166C8.39214 28.1925 9.3168 25.2961 10.5035 22.5201C11.5673 20.0307 12.8353 17.6474 14.2924 15.3986C16.4764 12.0288 19.0672 8.9843 21.997 6.34459C23.0555 5.38796 23.9306 4.69387 24.5312 4.22724C25.1318 3.76062 25.4618 3.52465 25.4618 3.52465L25.333 3.31738C25.333 3.31738 24.999 3.55335 24.3905 4.0136C23.782 4.47384 22.8969 5.16899 21.8236 6.12031C18.8505 8.75273 16.2152 11.7953 13.9861 15.169C12.4972 17.4238 11.1977 19.8159 10.1031 22.3171C8.88014 25.1126 7.9216 28.0325 7.24182 31.0331C6.51355 34.2434 6.10427 37.5273 6.02081 40.8301C5.93253 44.2434 6.19007 47.657 6.7889 51.0107C7.39185 54.3669 8.3357 57.6421 9.60357 60.7779C10.8336 63.8161 12.3619 66.7051 14.1625 69.3961C15.8472 71.9156 17.7596 74.2504 19.8721 76.3667C21.766 78.2651 23.8134 79.9792 25.9901 81.489C29.2523 83.7539 32.782 85.5412 36.4856 86.8036C37.8266 87.2596 38.8969 87.5476 39.6313 87.739C40.3657 87.9303 40.7542 88.0079 40.7542 88.0079L40.9841 86.8387L41 86.845Z" fill="url(#paint58_linear_762_1199)"/>
</g>
<defs>
<linearGradient id="paint0_linear_762_1199" x1="3.31767" y1="39.5068" x2="3.31767" y2="48.0793" gradientUnits="userSpaceOnUse">
<stop stop-color="#C19645"/>
<stop offset="1" stop-color="#E4CA70"/>
</linearGradient>
<linearGradient id="paint1_linear_762_1199" x1="9.8261" y1="36.5825" x2="9.8261" y2="45.1561" gradientUnits="userSpaceOnUse">
<stop stop-color="#C19645"/>
<stop offset="1" stop-color="#E4CA70"/>
</linearGradient>
<linearGradient id="paint2_linear_762_1199" x1="4.26017" y1="48.7925" x2="4.26017" y2="55.9959" gradientUnits="userSpaceOnUse">
<stop stop-color="#C19645"/>
<stop offset="1" stop-color="#E4CA70"/>
</linearGradient>
<linearGradient id="paint3_linear_762_1199" x1="10.1488" y1="43.4639" x2="10.1488" y2="53.1365" gradientUnits="userSpaceOnUse">
<stop stop-color="#C19645"/>
<stop offset="1" stop-color="#E4CA70"/>
</linearGradient>
<linearGradient id="paint4_linear_762_1199" x1="6.57783" y1="57.873" x2="6.57783" y2="63.5789" gradientUnits="userSpaceOnUse">
<stop stop-color="#C19645"/>
<stop offset="1" stop-color="#E4CA70"/>
</linearGradient>
<linearGradient id="paint5_linear_762_1199" x1="11.6176" y1="50.3081" x2="11.6176" y2="60.7949" gradientUnits="userSpaceOnUse">
<stop stop-color="#C19645"/>
<stop offset="1" stop-color="#E4CA70"/>
</linearGradient>
<linearGradient id="paint6_linear_762_1199" x1="10.2012" y1="66.395" x2="10.2012" y2="70.7451" gradientUnits="userSpaceOnUse">
<stop stop-color="#C19645"/>
<stop offset="1" stop-color="#E4CA70"/>
</linearGradient>
<linearGradient id="paint7_linear_762_1199" x1="14.3478" y1="56.9102" x2="14.3478" y2="67.8901" gradientUnits="userSpaceOnUse">
<stop stop-color="#C19645"/>
<stop offset="1" stop-color="#E4CA70"/>
</linearGradient>
<linearGradient id="paint8_linear_762_1199" x1="15.0317" y1="73.7441" x2="15.0317" y2="77.2713" gradientUnits="userSpaceOnUse">
<stop stop-color="#C19645"/>
<stop offset="1" stop-color="#E4CA70"/>
</linearGradient>
<linearGradient id="paint9_linear_762_1199" x1="18.2634" y1="63.0688" x2="18.2634" y2="74.2083" gradientUnits="userSpaceOnUse">
<stop stop-color="#C19645"/>
<stop offset="1" stop-color="#E4CA70"/>
</linearGradient>
<linearGradient id="paint10_linear_762_1199" x1="20.8979" y1="79.6489" x2="20.8979" y2="82.9603" gradientUnits="userSpaceOnUse">
<stop stop-color="#C19645"/>
<stop offset="1" stop-color="#E4CA70"/>
</linearGradient>
<linearGradient id="paint11_linear_762_1199" x1="23.1258" y1="68.6021" x2="23.1258" y2="79.5608" gradientUnits="userSpaceOnUse">
<stop stop-color="#C19645"/>
<stop offset="1" stop-color="#E4CA70"/>
</linearGradient>
<linearGradient id="paint12_linear_762_1199" x1="27.6437" y1="84.1709" x2="27.6437" y2="87.6723" gradientUnits="userSpaceOnUse">
<stop stop-color="#C19645"/>
<stop offset="1" stop-color="#E4CA70"/>
</linearGradient>
<linearGradient id="paint13_linear_762_1199" x1="28.6773" y1="73.3301" x2="28.6773" y2="83.7765" gradientUnits="userSpaceOnUse">
<stop stop-color="#C19645"/>
<stop offset="1" stop-color="#E4CA70"/>
</linearGradient>
<linearGradient id="paint14_linear_762_1199" x1="33.5654" y1="86.7241" x2="33.5654" y2="91.0008" gradientUnits="userSpaceOnUse">
<stop stop-color="#C19645"/>
<stop offset="1" stop-color="#E4CA70"/>
</linearGradient>
<linearGradient id="paint15_linear_762_1199" x1="34.7612" y1="77.1216" x2="34.7612" y2="86.7368" gradientUnits="userSpaceOnUse">
<stop stop-color="#C19645"/>
<stop offset="1" stop-color="#E4CA70"/>
</linearGradient>
<linearGradient id="paint16_linear_762_1199" x1="27.4059" y1="0.400879" x2="27.4059" y2="4.53487" gradientUnits="userSpaceOnUse">
<stop stop-color="#C19645"/>
<stop offset="1" stop-color="#E4CA70"/>
</linearGradient>
<linearGradient id="paint17_linear_762_1199" x1="22.0362" y1="0.538086" x2="22.0362" y2="7.43327" gradientUnits="userSpaceOnUse">
<stop stop-color="#C19645"/>
<stop offset="1" stop-color="#E4CA70"/>
</linearGradient>
<linearGradient id="paint18_linear_762_1199" x1="25.8375" y1="5.76465" x2="25.8375" y2="8.07621" gradientUnits="userSpaceOnUse">
<stop stop-color="#C19645"/>
<stop offset="1" stop-color="#E4CA70"/>
</linearGradient>
<linearGradient id="paint19_linear_762_1199" x1="17.4109" y1="3.6958" x2="17.4109" y2="11.7134" gradientUnits="userSpaceOnUse">
<stop stop-color="#C19645"/>
<stop offset="1" stop-color="#E4CA70"/>
</linearGradient>
<linearGradient id="paint20_linear_762_1199" x1="22.0912" y1="9.03418" x2="22.0912" y2="11.4569" gradientUnits="userSpaceOnUse">
<stop stop-color="#C19645"/>
<stop offset="1" stop-color="#E4CA70"/>
</linearGradient>
<linearGradient id="paint21_linear_762_1199" x1="13.0845" y1="7.28125" x2="13.0845" y2="17.108" gradientUnits="userSpaceOnUse">
<stop stop-color="#C19645"/>
<stop offset="1" stop-color="#E4CA70"/>
</linearGradient>
<linearGradient id="paint22_linear_762_1199" x1="19.0327" y1="12.7417" x2="19.0327" y2="15.855" gradientUnits="userSpaceOnUse">
<stop stop-color="#C19645"/>
<stop offset="1" stop-color="#E4CA70"/>
</linearGradient>
<linearGradient id="paint23_linear_762_1199" x1="8.96577" y1="13.2837" x2="8.96577" y2="24.2616" gradientUnits="userSpaceOnUse">
<stop stop-color="#C19645"/>
<stop offset="1" stop-color="#E4CA70"/>
</linearGradient>
<linearGradient id="paint24_linear_762_1199" x1="15.8384" y1="17.7095" x2="15.8384" y2="22.0553" gradientUnits="userSpaceOnUse">
<stop stop-color="#C19645"/>
<stop offset="1" stop-color="#E4CA70"/>
</linearGradient>
<linearGradient id="paint25_linear_762_1199" x1="5.78829" y1="21.4829" x2="5.78829" y2="31.9676" gradientUnits="userSpaceOnUse">
<stop stop-color="#C19645"/>
<stop offset="1" stop-color="#E4CA70"/>
</linearGradient>
<linearGradient id="paint26_linear_762_1199" x1="12.6903" y1="23.5513" x2="12.6903" y2="29.2571" gradientUnits="userSpaceOnUse">
<stop stop-color="#C19645"/>
<stop offset="1" stop-color="#E4CA70"/>
</linearGradient>
<linearGradient id="paint27_linear_762_1199" x1="3.8321" y1="30.3115" x2="3.8321" y2="39.9841" gradientUnits="userSpaceOnUse">
<stop stop-color="#C19645"/>
<stop offset="1" stop-color="#E4CA70"/>
</linearGradient>
<linearGradient id="paint28_linear_762_1199" x1="10.6655" y1="29.8789" x2="10.6655" y2="37.0823" gradientUnits="userSpaceOnUse">
<stop stop-color="#C19645"/>
<stop offset="1" stop-color="#E4CA70"/>
</linearGradient>
<linearGradient id="paint29_linear_762_1199" x1="3.31767" y1="39.1074" x2="3.31767" y2="47.6799" gradientUnits="userSpaceOnUse">
<stop stop-color="#C19645"/>
<stop offset="1" stop-color="#E4CA70"/>
</linearGradient>
<linearGradient id="paint30_linear_762_1199" x1="9.8261" y1="36.1831" x2="9.8261" y2="44.7566" gradientUnits="userSpaceOnUse">
<stop stop-color="#C19645"/>
<stop offset="1" stop-color="#E4CA70"/>
</linearGradient>
<linearGradient id="paint31_linear_762_1199" x1="4.26017" y1="48.3916" x2="4.26017" y2="55.595" gradientUnits="userSpaceOnUse">
<stop stop-color="#C19645"/>
<stop offset="1" stop-color="#E4CA70"/>
</linearGradient>
<linearGradient id="paint32_linear_762_1199" x1="10.1488" y1="43.0645" x2="10.1488" y2="52.7371" gradientUnits="userSpaceOnUse">
<stop stop-color="#C19645"/>
<stop offset="1" stop-color="#E4CA70"/>
</linearGradient>
<linearGradient id="paint33_linear_762_1199" x1="6.57783" y1="57.4756" x2="6.57783" y2="63.1814" gradientUnits="userSpaceOnUse">
<stop stop-color="#C19645"/>
<stop offset="1" stop-color="#E4CA70"/>
</linearGradient>
<linearGradient id="paint34_linear_762_1199" x1="11.6176" y1="49.9116" x2="11.6176" y2="60.3984" gradientUnits="userSpaceOnUse">
<stop stop-color="#C19645"/>
<stop offset="1" stop-color="#E4CA70"/>
</linearGradient>
<linearGradient id="paint35_linear_762_1199" x1="10.2012" y1="65.9976" x2="10.2012" y2="70.3476" gradientUnits="userSpaceOnUse">
<stop stop-color="#C19645"/>
<stop offset="1" stop-color="#E4CA70"/>
</linearGradient>
<linearGradient id="paint36_linear_762_1199" x1="14.3478" y1="56.5093" x2="14.3478" y2="67.4893" gradientUnits="userSpaceOnUse">
<stop stop-color="#C19645"/>
<stop offset="1" stop-color="#E4CA70"/>
</linearGradient>
<linearGradient id="paint37_linear_762_1199" x1="15.0317" y1="73.3467" x2="15.0317" y2="76.8732" gradientUnits="userSpaceOnUse">
<stop stop-color="#C19645"/>
<stop offset="1" stop-color="#E4CA70"/>
</linearGradient>
<linearGradient id="paint38_linear_762_1199" x1="18.2629" y1="62.6709" x2="18.2629" y2="73.8103" gradientUnits="userSpaceOnUse">
<stop stop-color="#C19645"/>
<stop offset="1" stop-color="#E4CA70"/>
</linearGradient>
<linearGradient id="paint39_linear_762_1199" x1="20.8979" y1="79.2559" x2="20.8979" y2="82.5642" gradientUnits="userSpaceOnUse">
<stop stop-color="#C19645"/>
<stop offset="1" stop-color="#E4CA70"/>
</linearGradient>
<linearGradient id="paint40_linear_762_1199" x1="23.1258" y1="68.2012" x2="23.1258" y2="79.1599" gradientUnits="userSpaceOnUse">
<stop stop-color="#C19645"/>
<stop offset="1" stop-color="#E4CA70"/>
</linearGradient>
<linearGradient id="paint41_linear_762_1199" x1="27.6437" y1="83.7729" x2="27.6437" y2="87.2745" gradientUnits="userSpaceOnUse">
<stop stop-color="#C19645"/>
<stop offset="1" stop-color="#E4CA70"/>
</linearGradient>
<linearGradient id="paint42_linear_762_1199" x1="28.6773" y1="72.9302" x2="28.6773" y2="83.3766" gradientUnits="userSpaceOnUse">
<stop stop-color="#C19645"/>
<stop offset="1" stop-color="#E4CA70"/>
</linearGradient>
<linearGradient id="paint43_linear_762_1199" x1="33.5654" y1="86.3286" x2="33.5654" y2="90.6069" gradientUnits="userSpaceOnUse">
<stop stop-color="#C19645"/>
<stop offset="1" stop-color="#E4CA70"/>
</linearGradient>
<linearGradient id="paint44_linear_762_1199" x1="34.7612" y1="76.7217" x2="34.7612" y2="86.3369" gradientUnits="userSpaceOnUse">
<stop stop-color="#C19645"/>
<stop offset="1" stop-color="#E4CA70"/>
</linearGradient>
<linearGradient id="paint45_linear_762_1199" x1="27.4059" y1="0" x2="27.4059" y2="4.13399" gradientUnits="userSpaceOnUse">
<stop stop-color="#C19645"/>
<stop offset="1" stop-color="#E4CA70"/>
</linearGradient>
<linearGradient id="paint46_linear_762_1199" x1="22.0363" y1="0.138184" x2="22.0363" y2="7.03336" gradientUnits="userSpaceOnUse">
<stop stop-color="#C19645"/>
<stop offset="1" stop-color="#E4CA70"/>
</linearGradient>
<linearGradient id="paint47_linear_762_1199" x1="25.8375" y1="5.36475" x2="25.8375" y2="7.67744" gradientUnits="userSpaceOnUse">
<stop stop-color="#C19645"/>
<stop offset="1" stop-color="#E4CA70"/>
</linearGradient>
<linearGradient id="paint48_linear_762_1199" x1="17.4109" y1="3.29834" x2="17.4109" y2="11.316" gradientUnits="userSpaceOnUse">
<stop stop-color="#C19645"/>
<stop offset="1" stop-color="#E4CA70"/>
</linearGradient>
<linearGradient id="paint49_linear_762_1199" x1="22.0912" y1="8.6333" x2="22.0912" y2="11.055" gradientUnits="userSpaceOnUse">
<stop stop-color="#C19645"/>
<stop offset="1" stop-color="#E4CA70"/>
</linearGradient>
<linearGradient id="paint50_linear_762_1199" x1="13.0845" y1="6.88574" x2="13.0845" y2="16.7114" gradientUnits="userSpaceOnUse">
<stop stop-color="#C19645"/>
<stop offset="1" stop-color="#E4CA70"/>
</linearGradient>
<linearGradient id="paint51_linear_762_1199" x1="19.0327" y1="12.3447" x2="19.0327" y2="15.4582" gradientUnits="userSpaceOnUse">
<stop stop-color="#C19645"/>
<stop offset="1" stop-color="#E4CA70"/>
</linearGradient>
<linearGradient id="paint52_linear_762_1199" x1="8.96577" y1="12.8867" x2="8.96577" y2="23.8646" gradientUnits="userSpaceOnUse">
<stop stop-color="#C19645"/>
<stop offset="1" stop-color="#E4CA70"/>
</linearGradient>
<linearGradient id="paint53_linear_762_1199" x1="15.8384" y1="17.3091" x2="15.8384" y2="21.6549" gradientUnits="userSpaceOnUse">
<stop stop-color="#C19645"/>
<stop offset="1" stop-color="#E4CA70"/>
</linearGradient>
<linearGradient id="paint54_linear_762_1199" x1="5.7881" y1="21.0864" x2="5.7881" y2="31.5711" gradientUnits="userSpaceOnUse">
<stop stop-color="#C19645"/>
<stop offset="1" stop-color="#E4CA70"/>
</linearGradient>
<linearGradient id="paint55_linear_762_1199" x1="12.6903" y1="23.1538" x2="12.6903" y2="28.8596" gradientUnits="userSpaceOnUse">
<stop stop-color="#C19645"/>
<stop offset="1" stop-color="#E4CA70"/>
</linearGradient>
<linearGradient id="paint56_linear_762_1199" x1="3.8321" y1="29.9141" x2="3.8321" y2="39.5867" gradientUnits="userSpaceOnUse">
<stop stop-color="#C19645"/>
<stop offset="1" stop-color="#E4CA70"/>
</linearGradient>
<linearGradient id="paint57_linear_762_1199" x1="10.6655" y1="29.4814" x2="10.6655" y2="36.6849" gradientUnits="userSpaceOnUse">
<stop stop-color="#C19645"/>
<stop offset="1" stop-color="#E4CA70"/>
</linearGradient>
<linearGradient id="paint58_linear_762_1199" x1="23.502" y1="3.31738" x2="23.502" y2="88.0079" gradientUnits="userSpaceOnUse">
<stop stop-color="#C19645"/>
<stop offset="1" stop-color="#E4CA70"/>
</linearGradient>
<clipPath id="clip0_762_1199">
<rect width="41" height="91" fill="white"/>
</clipPath>
</defs>
</svg>
