<svg width="41" height="91" viewBox="0 0 41 91" fill="none" xmlns="http://www.w3.org/2000/svg">
<g clip-path="url(#clip0_768_1392)">
<path d="M36.0644 43.294C37.4529 41.6854 39.1322 40.3969 41 39.5068C40.528 41.6405 39.6553 43.6485 38.4351 45.4082C37.4142 46.7852 35.9726 47.7312 34.3647 48.0793C34.3857 46.3196 34.9876 44.6249 36.0634 43.2962L36.0644 43.294Z" fill="url(#paint0_linear_768_1392)"/>
<path d="M32.7929 40.3729C33.8687 41.7017 34.4706 43.3964 34.4916 45.1561C32.8835 44.8077 31.4419 43.8613 30.4212 42.4839C29.201 40.7242 28.3283 38.7162 27.8563 36.5825C29.7241 37.4726 31.4034 38.7611 32.7919 40.3697L32.7929 40.3729Z" fill="url(#paint1_linear_768_1392)"/>
<path d="M35.225 51.605C36.8533 50.2793 38.716 49.3224 40.6997 48.7925C39.8902 50.8055 38.7062 52.6201 37.22 54.1252C35.9922 55.2911 34.4195 55.9538 32.78 55.9959C33.0871 54.2682 33.9543 52.7128 35.228 51.605H35.225Z" fill="url(#paint2_linear_768_1392)"/>
<path d="M32.4797 48.1142C33.3214 49.6225 33.6398 51.4011 33.3786 53.1365C31.8523 52.496 30.5863 51.2972 29.8048 49.7521C28.8894 47.7919 28.3553 45.6524 28.2349 43.4639C29.9298 44.6895 31.375 46.2715 32.4827 48.1142H32.4797Z" fill="url(#paint3_linear_768_1392)"/>
<path d="M33.0605 59.6226C34.8775 58.6195 36.8661 58.0242 38.9049 57.873C37.7808 59.7039 36.3215 61.2704 34.6155 62.4776C33.2176 63.3979 31.5613 63.7582 29.9395 63.4948C30.522 61.8509 31.6274 60.4805 33.0605 59.6258V59.6226Z" fill="url(#paint4_linear_768_1392)"/>
<path d="M30.9187 55.678C31.505 57.3212 31.53 59.1339 30.9891 60.7949C29.5882 59.8801 28.5348 58.4627 28.0158 56.7941C27.4315 54.6928 27.2522 52.4861 27.4886 50.3081C28.9599 51.8298 30.127 53.6569 30.9187 55.678Z" fill="url(#paint5_linear_768_1392)"/>
<path d="M29.6284 67.1214C31.5806 66.4712 33.636 66.2542 35.669 66.4837C34.2673 68.0812 32.5764 69.355 30.6997 70.2273C29.173 70.8712 27.4832 70.916 25.9286 70.3538C26.7676 68.8426 28.0783 67.6987 29.6284 67.1246V67.1214Z" fill="url(#paint6_linear_768_1392)"/>
<path d="M28.1596 62.8391C28.4715 64.566 28.2029 66.3555 27.4014 67.8901C26.1697 66.7272 25.3612 65.1346 25.1189 63.394C24.883 61.2166 25.0631 59.0105 25.6482 56.9102C26.8521 58.6823 27.7066 60.6989 28.1596 62.837V62.8391Z" fill="url(#paint7_linear_768_1392)"/>
<path d="M25.0268 73.8723C27.0527 73.5967 29.1097 73.7667 31.0724 74.3719C29.4353 75.679 27.5671 76.6146 25.5818 77.1217C23.9748 77.472 22.304 77.2025 20.8642 76.3606C21.9364 75.0296 23.4123 74.1473 25.0317 73.8692L25.0268 73.8723Z" fill="url(#paint8_linear_768_1392)"/>
<path d="M24.2785 69.373C24.3053 71.132 23.7518 72.8446 22.7156 74.2083C21.6907 72.8345 21.1524 71.1159 21.1962 69.3571C21.3178 67.1681 21.8537 65.0286 22.7711 63.0688C23.6671 65.0388 24.1799 67.1837 24.2785 69.373Z" fill="url(#paint9_linear_768_1392)"/>
<path d="M19.4162 79.6498C21.4581 79.7577 23.4582 80.3091 25.2953 81.2708C23.4676 82.2541 21.4723 82.828 19.4311 82.9576C17.7919 83.0052 16.1899 82.4291 14.9088 81.3314C16.1794 80.2183 17.7759 79.6228 19.4162 79.6498Z" fill="url(#paint10_linear_768_1392)"/>
<path d="M19.4004 75.0859C19.1425 76.8245 18.32 78.4094 17.0783 79.5608C16.2929 78.016 16.0416 76.2233 16.3687 74.4991C16.8405 72.3669 17.713 70.3603 18.9326 68.6021C19.4977 70.7068 19.6568 72.913 19.4004 75.0859Z" fill="url(#paint11_linear_768_1392)"/>
<path d="M12.9485 84.3056C14.9419 84.7908 16.8222 85.7066 18.4747 86.997C16.5163 87.6243 14.4594 87.8174 12.4291 87.5646C10.8069 87.3053 9.32239 86.4394 8.23785 85.1198C9.66876 84.2603 11.3373 83.9722 12.9475 84.3067L12.9485 84.3056Z" fill="url(#paint12_linear_768_1392)"/>
<path d="M13.6688 79.8139C13.1336 81.4737 12.0685 82.8772 10.6619 83.7765C10.1393 82.1086 10.1828 80.2964 10.7848 78.6596C11.5946 76.648 12.7783 74.8346 14.2635 73.3301C14.4774 75.5105 14.2751 77.7148 13.6688 79.8086V79.8139Z" fill="url(#paint13_linear_768_1392)"/>
<path d="M7.31714 87.2118C9.20119 88.0621 10.9043 89.3144 12.3231 90.8927C10.2929 91.146 8.23592 90.9533 6.2775 90.3261C4.72176 89.7706 3.39979 88.642 2.54608 87.1405C4.09481 86.5604 5.78503 86.5872 7.31714 87.216V87.2118Z" fill="url(#paint14_linear_768_1392)"/>
<path d="M7.26463 83.3928C6.46713 84.9286 5.18947 86.1129 3.6571 86.7368C3.41154 84.9975 3.74751 83.2211 4.60557 81.7219C5.73116 79.8922 7.19186 78.3271 8.89893 77.1216C8.75835 79.3092 8.20327 81.4431 7.26761 83.3928H7.26463Z" fill="url(#paint15_linear_768_1392)"/>
<path d="M10.5966 0.400879C11.9882 0.563514 13.3343 1.02823 14.553 1.76673C15.5128 2.39202 16.2351 3.3617 16.5917 4.50376C15.4763 4.63635 14.3532 4.34236 13.4202 3.67362C12.2815 2.79972 11.3208 1.68616 10.5966 0.400879Z" fill="url(#paint16_linear_768_1392)"/>
<path d="M18.0743 4.81422C17.6742 3.4322 17.541 1.97719 17.6829 0.538086C18.663 1.53182 19.4446 2.7288 19.9802 4.05636C20.3766 5.1368 20.405 6.33256 20.0605 7.43327C19.1299 6.83919 18.4251 5.91157 18.0704 4.81422H18.0743Z" fill="url(#paint17_linear_768_1392)"/>
<path d="M15.4321 5.85485C16.4945 5.63381 17.5955 5.82202 18.5411 6.38632C17.8258 7.25876 16.8462 7.83211 15.775 8.00515C14.4348 8.17183 13.0769 8.04454 11.7839 7.631C12.8746 6.77876 14.116 6.17437 15.4321 5.85485Z" fill="url(#paint18_linear_768_1392)"/>
<path d="M22.4718 8.44706C22.2849 6.85475 22.4015 5.23831 22.8147 3.6958C23.706 4.98313 24.3439 6.45135 24.6898 8.01127C24.9304 9.27224 24.7468 10.5839 24.1715 11.7134C23.2635 10.8729 22.6618 9.71522 22.4727 8.44494L22.4718 8.44706Z" fill="url(#paint19_linear_768_1392)"/>
<path d="M19.4073 9.03485C20.6077 9.01467 21.7762 9.44984 22.7066 10.2636C21.7691 11.0661 20.5976 11.4881 19.3984 11.4551C17.9061 11.3597 16.4474 10.9398 15.111 10.2211C16.4539 9.51616 17.9169 9.11252 19.4103 9.03485H19.4073Z" fill="url(#paint20_linear_768_1392)"/>
<path d="M26.555 12.8457C26.6413 10.913 27.0946 9.01952 27.887 7.28125C28.6963 9.00962 29.1685 10.8969 29.2745 12.8276C29.3144 14.3793 28.84 15.896 27.9356 17.108C27.0201 15.9052 26.5311 14.3938 26.555 12.8414V12.8457Z" fill="url(#paint21_linear_768_1392)"/>
<path d="M22.7978 12.8552C24.2278 13.0979 25.5313 13.8764 26.4767 15.0523C25.2064 15.7953 23.7319 16.0325 22.3142 15.7219C20.5585 15.2753 18.9061 14.4496 17.4579 13.2953C19.1915 12.7612 21.0085 12.6115 22.7978 12.8552Z" fill="url(#paint22_linear_768_1392)"/>
<path d="M30.5273 19.2105C30.9797 17.0726 31.8335 15.056 33.0367 13.2837C33.6218 15.384 33.8019 17.5901 33.5659 19.7675C33.324 21.5069 32.5166 23.0987 31.2864 24.2616C30.4854 22.7275 30.2168 20.9388 30.5283 19.2127L30.5273 19.2105Z" fill="url(#paint23_linear_768_1392)"/>
<path d="M26.332 18.4348C27.8821 19.0089 29.1927 20.1528 30.0317 21.664C28.4772 22.2262 26.7874 22.1814 25.2607 21.5375C23.3845 20.6661 21.6937 19.3938 20.2914 17.7981C22.3244 17.5687 24.3797 17.7846 26.332 18.4348Z" fill="url(#paint24_linear_768_1392)"/>
<path d="M37.105 21.4829C37.3419 23.6602 37.1625 25.8663 36.5778 27.9667C36.0588 29.6354 35.0054 31.0528 33.6046 31.9676C33.0641 30.306 33.0897 28.4928 33.6769 26.8496C34.4687 24.83 35.635 23.0042 37.105 21.4829Z" fill="url(#paint25_linear_768_1392)"/>
<path d="M29.6729 25.304C31.106 26.1588 32.2114 27.5291 32.7938 29.1731C31.1721 29.4364 29.5158 29.0761 28.1179 28.1559C26.4108 26.949 24.9504 25.3824 23.8256 23.5513C25.8653 23.702 27.855 24.2974 29.6729 25.3008V25.304Z" fill="url(#paint26_linear_768_1392)"/>
<path d="M35.5372 34.9618C36.6446 33.1193 38.0894 31.5372 39.784 30.3115C39.6648 32.4998 39.1321 34.6392 38.218 36.5998C37.4355 38.1456 36.1681 39.3445 34.6402 39.9841C34.3799 38.2483 34.6993 36.4697 35.5421 34.9618H35.5372Z" fill="url(#paint27_linear_768_1392)"/>
<path d="M31.8464 32.6914C33.1201 33.7993 33.9872 35.3547 34.2944 37.0823C32.6549 37.0402 31.0821 36.3776 29.8543 35.2116C28.3683 33.7063 27.1843 31.8918 26.3746 29.8789C28.3584 30.4088 30.221 31.3657 31.8494 32.6914H31.8464Z" fill="url(#paint28_linear_768_1392)"/>
<path d="M36.0644 42.8946C37.4529 41.286 39.1322 39.9975 41 39.1074C40.528 41.2411 39.6553 43.2491 38.4351 45.0088C37.4142 46.3858 35.9726 47.3318 34.3647 47.6799C34.3857 45.9202 34.9876 44.2255 36.0634 42.8967L36.0644 42.8946Z" fill="url(#paint29_linear_768_1392)"/>
<path d="M32.7929 39.9735C33.8687 41.3023 34.4706 42.997 34.4916 44.7566C32.8835 44.4083 31.4419 43.4619 30.4212 42.0845C29.201 40.3248 28.3283 38.3168 27.8563 36.1831C29.7241 37.0731 31.4034 38.3617 32.7919 39.9703L32.7929 39.9735Z" fill="url(#paint30_linear_768_1392)"/>
<path d="M35.225 51.2041C36.8533 49.8784 38.716 48.9215 40.6997 48.3916C39.8902 50.4046 38.7062 52.2192 37.22 53.7243C35.9922 54.8903 34.4195 55.5529 32.78 55.595C33.0871 53.8674 33.9543 52.312 35.228 51.2041H35.225Z" fill="url(#paint31_linear_768_1392)"/>
<path d="M32.4797 47.7147C33.3215 49.2231 33.6398 51.0017 33.3786 52.7371C31.8522 52.0967 30.5863 50.8978 29.8048 49.3527C28.8894 47.3924 28.3553 45.253 28.2349 43.0645C29.9298 44.29 31.375 45.8721 32.4827 47.7147H32.4797Z" fill="url(#paint32_linear_768_1392)"/>
<path d="M33.0605 59.2252C34.8775 58.2221 36.8661 57.6268 38.9049 57.4756C37.7808 59.3064 36.3215 60.873 34.6155 62.0802C33.2176 63.0004 31.5613 63.3607 29.9395 63.0974C30.522 61.4534 31.6274 60.0831 33.0605 59.2283V59.2252Z" fill="url(#paint33_linear_768_1392)"/>
<path d="M30.9187 55.2815C31.505 56.9247 31.53 58.7374 30.9891 60.3984C29.5882 59.4837 28.5348 58.0662 28.0158 56.3976C27.4315 54.2964 27.2522 52.0896 27.4886 49.9116C28.9599 51.4334 30.127 53.2604 30.9187 55.2815Z" fill="url(#paint34_linear_768_1392)"/>
<path d="M29.6284 66.724C31.5806 66.0738 33.636 65.8568 35.669 66.0862C34.2673 67.6837 32.5764 68.9576 30.6997 69.8298C29.173 70.4737 27.4832 70.5185 25.9286 69.9563C26.7676 68.4452 28.0783 67.3012 29.6284 66.7272V66.724Z" fill="url(#paint35_linear_768_1392)"/>
<path d="M28.1596 62.4383C28.4715 64.1651 28.2029 65.9546 27.4014 67.4893C26.1697 66.3263 25.3612 64.7337 25.1189 62.9931C24.883 60.8157 25.0631 58.6096 25.6482 56.5093C26.8521 58.2814 27.7066 60.298 28.1596 62.4361V62.4383Z" fill="url(#paint36_linear_768_1392)"/>
<path d="M25.0268 73.4753C27.0526 73.1991 29.1097 73.3688 31.0724 73.9738C29.4346 75.2796 27.5667 76.215 25.5818 76.7236C23.9748 77.0739 22.304 76.8044 20.8642 75.9625C21.9366 74.6319 23.4124 73.75 25.0317 73.4721L25.0268 73.4753Z" fill="url(#paint37_linear_768_1392)"/>
<path d="M24.2785 68.9751C24.3053 70.7341 23.7518 72.4466 22.7156 73.8103C21.6907 72.4365 21.1524 70.7179 21.1962 68.9591C21.3178 66.7702 21.8537 64.6306 22.7711 62.6709C23.6677 64.6407 24.1813 66.7856 24.2805 68.9751H24.2785Z" fill="url(#paint38_linear_768_1392)"/>
<path d="M19.4162 79.2568C21.458 79.3627 23.4583 79.9131 25.2953 80.8746C23.4676 81.8579 21.4723 82.4318 19.4311 82.5614C17.7919 82.6091 16.1899 82.0329 14.9088 80.9352C16.1798 79.8233 17.7763 79.2289 19.4162 79.2568Z" fill="url(#paint39_linear_768_1392)"/>
<path d="M19.4004 74.685C19.1425 76.4236 18.32 78.0085 17.0783 79.1599C16.2929 77.6151 16.0416 75.8224 16.3687 74.0983C16.8419 71.9665 17.7142 69.9602 18.9326 68.2012C19.4977 70.3059 19.6568 72.5121 19.4004 74.685Z" fill="url(#paint40_linear_768_1392)"/>
<path d="M12.9485 83.9077C14.9419 84.3929 16.8222 85.3086 18.4747 86.599C16.5164 87.2265 14.4594 87.4197 12.4291 87.1666C10.8069 86.9073 9.32239 86.0414 8.23785 84.7219C9.66876 83.8623 11.3373 83.5742 12.9475 83.9088L12.9485 83.9077Z" fill="url(#paint41_linear_768_1392)"/>
<path d="M13.6688 79.414C13.1336 81.0738 12.0685 82.4773 10.6619 83.3766C10.1393 81.7087 10.1828 79.8965 10.7848 78.2597C11.5946 76.2481 12.7783 74.4347 14.2635 72.9302C14.4774 75.1106 14.2751 77.3149 13.6688 79.4087V79.414Z" fill="url(#paint42_linear_768_1392)"/>
<path d="M7.31714 86.8184C9.20119 87.6687 10.9043 88.9211 12.3231 90.4993C10.2929 90.7519 8.23593 90.5588 6.2775 89.9317C4.72161 89.3758 3.39961 88.2469 2.54608 86.745C4.09481 86.1649 5.78503 86.1917 7.31714 86.8205V86.8184Z" fill="url(#paint43_linear_768_1392)"/>
<path d="M7.26463 82.9929C6.46713 84.5287 5.18947 85.713 3.6571 86.3369C3.41154 84.5976 3.74751 82.8212 4.60557 81.322C5.73116 79.4923 7.19186 77.9272 8.89893 76.7217C8.75835 78.9093 8.20327 81.0432 7.26761 82.9929H7.26463Z" fill="url(#paint44_linear_768_1392)"/>
<path d="M10.5966 0C11.9882 0.162635 13.3343 0.627355 14.553 1.36586C15.5128 1.99114 16.2351 2.96082 16.5917 4.10288C15.4763 4.23547 14.3532 3.94148 13.4202 3.27274C12.2814 2.39902 11.3206 1.28542 10.5966 0Z" fill="url(#paint45_linear_768_1392)"/>
<path d="M18.0733 4.41432C17.6732 3.0323 17.54 1.57728 17.6818 0.138184C18.6627 1.13171 19.4449 2.32871 19.9812 3.65646C20.3775 4.7369 20.406 5.93266 20.0614 7.03336C19.1305 6.43947 18.4253 5.51183 18.0704 4.41432H18.0733Z" fill="url(#paint46_linear_768_1392)"/>
<path d="M15.4321 5.45495C16.4945 5.23391 17.5955 5.42212 18.5411 5.98641C17.8258 6.85885 16.8462 7.43221 15.775 7.60525C14.4348 7.77379 13.0766 7.64646 11.7839 7.2311C12.8746 6.37886 14.116 5.77446 15.4321 5.45495Z" fill="url(#paint47_linear_768_1392)"/>
<path d="M22.4718 8.0496C22.2849 6.45729 22.4015 4.84085 22.8147 3.29834C23.706 4.58567 24.3439 6.05389 24.6898 7.61381C24.9304 8.87478 24.7468 10.1864 24.1715 11.316C23.2635 10.4755 22.6618 9.31776 22.4727 8.04748L22.4718 8.0496Z" fill="url(#paint48_linear_768_1392)"/>
<path d="M19.4073 8.63397C20.6077 8.61379 21.7762 9.04896 22.7066 9.86271C21.769 10.6649 20.5974 11.0864 19.3984 11.0532C17.906 10.9581 16.4473 10.5382 15.111 9.81913C16.454 9.11439 17.9169 8.7111 19.4103 8.63397H19.4073Z" fill="url(#paint49_linear_768_1392)"/>
<path d="M26.555 12.4501C26.6413 10.5175 27.0946 8.62401 27.887 6.88574C28.6947 8.6144 29.1667 10.5009 29.2745 12.431C29.3144 13.9828 28.84 15.4994 27.9356 16.7114C27.0201 15.5086 26.5311 13.9972 26.555 12.4448V12.4501Z" fill="url(#paint50_linear_768_1392)"/>
<path d="M22.7978 12.4584C24.2278 12.7011 25.5313 13.4796 26.4767 14.6555C25.2064 15.3986 23.7319 15.6358 22.3142 15.3251C20.5585 14.878 18.9061 14.0519 17.4579 12.8974C19.1916 12.3639 21.0085 12.2146 22.7978 12.4584Z" fill="url(#paint51_linear_768_1392)"/>
<path d="M30.5273 18.8136C30.9797 16.6756 31.8335 14.659 33.0367 12.8867C33.6218 14.987 33.8019 17.1932 33.5659 19.3705C33.324 21.11 32.5166 22.7017 31.2864 23.8646C30.4854 22.3306 30.2168 20.5419 30.5283 18.8157L30.5273 18.8136Z" fill="url(#paint52_linear_768_1392)"/>
<path d="M26.337 18.0344C27.8852 18.6096 29.194 19.7534 30.0317 21.2636C28.4772 21.8258 26.7874 21.781 25.2607 21.1371C23.3843 20.2661 21.6934 18.9937 20.2914 17.3978C22.3244 17.1683 24.3797 17.3853 26.332 18.0355L26.337 18.0344Z" fill="url(#paint53_linear_768_1392)"/>
<path d="M33.6729 26.4563C34.4657 24.4353 35.6334 22.6083 37.1051 21.0864C37.3416 23.2637 37.1622 25.4698 36.5778 27.5703C36.0588 29.2389 35.0054 30.6563 33.6046 31.5711C33.0648 29.9105 33.0904 28.0986 33.6769 26.4563H33.6729Z" fill="url(#paint54_linear_768_1392)"/>
<path d="M29.6729 24.9066C31.106 25.7613 32.2114 27.1316 32.7938 28.7756C31.1721 29.039 29.5158 28.6786 28.1179 27.7584C26.4108 26.5515 24.9504 24.9849 23.8256 23.1538C25.8653 23.3046 27.855 23.8999 29.6729 24.9034V24.9066Z" fill="url(#paint55_linear_768_1392)"/>
<path d="M35.5372 34.5643C36.6446 32.7218 38.0894 31.1398 39.784 29.9141C39.6648 32.1023 39.1321 34.2417 38.218 36.2023C37.4355 37.7481 36.1681 38.947 34.6402 39.5867C34.3799 37.8509 34.6993 36.0723 35.5421 34.5643H35.5372Z" fill="url(#paint56_linear_768_1392)"/>
<path d="M31.8464 32.2939C33.1201 33.4018 33.9872 34.9572 34.2944 36.6849C32.6549 36.6428 31.0821 35.9801 29.8543 34.8141C28.3683 33.3089 27.1843 31.4943 26.3746 29.4814C28.3584 30.0114 30.221 30.9682 31.8494 32.2939H31.8464Z" fill="url(#paint57_linear_768_1392)"/>
<path d="M0 86.845C0 86.845 0.396432 86.7632 1.10505 86.5921C1.81368 86.4209 2.86819 86.1424 4.1774 85.7088C7.80431 84.5069 11.2653 82.7911 14.4688 80.6067C16.6103 79.1485 18.6268 77.4891 20.4946 75.6482C22.5812 73.5931 24.4734 71.3219 26.1437 68.8678C27.9336 66.2423 29.4579 63.4199 30.6908 60.4484C31.9652 57.3767 32.9207 54.164 33.5401 50.8683C34.158 47.5686 34.4391 44.2067 34.3786 40.8417C34.3247 37.583 33.9486 34.3396 33.2567 31.166C32.6079 28.1925 31.6832 25.2961 30.4965 22.5201C29.4327 20.0307 28.1647 17.6474 26.7076 15.3986C24.5236 12.0288 21.9328 8.9843 19.003 6.34459C17.9445 5.38796 17.0694 4.69387 16.4688 4.22724C15.8682 3.76062 15.5382 3.52465 15.5382 3.52465L15.667 3.31738C15.667 3.31738 16.001 3.55335 16.6095 4.0136C17.218 4.47384 18.1031 5.16899 19.1764 6.12031C22.1495 8.75273 24.7848 11.7953 27.0139 15.169C28.5028 17.4238 29.8023 19.8159 30.8969 22.3171C32.1199 25.1126 33.0784 28.0325 33.7582 31.0331C34.4865 34.2434 34.8957 37.5273 34.9792 40.8301C35.0675 44.2434 34.8099 47.657 34.2111 51.0107C33.6082 54.3669 32.6643 57.6421 31.3964 60.7779C30.1664 63.8161 28.6381 66.7051 26.8375 69.3961C25.1528 71.9156 23.2404 74.2504 21.1279 76.3667C19.234 78.2651 17.1866 79.9792 15.0099 81.489C11.7477 83.7539 8.21795 85.5412 4.51437 86.8036C3.17344 87.2596 2.10307 87.5476 1.36868 87.739C0.634291 87.9303 0.245788 88.0079 0.245788 88.0079L0.0158573 86.8387L0 86.845Z" fill="url(#paint58_linear_768_1392)"/>
</g>
<defs>
<linearGradient id="paint0_linear_768_1392" x1="37.6824" y1="39.5068" x2="37.6824" y2="48.0793" gradientUnits="userSpaceOnUse">
<stop stop-color="#C19645"/>
<stop offset="1" stop-color="#E4CA70"/>
</linearGradient>
<linearGradient id="paint1_linear_768_1392" x1="31.1739" y1="36.5825" x2="31.1739" y2="45.1561" gradientUnits="userSpaceOnUse">
<stop stop-color="#C19645"/>
<stop offset="1" stop-color="#E4CA70"/>
</linearGradient>
<linearGradient id="paint2_linear_768_1392" x1="36.7399" y1="48.7925" x2="36.7399" y2="55.9959" gradientUnits="userSpaceOnUse">
<stop stop-color="#C19645"/>
<stop offset="1" stop-color="#E4CA70"/>
</linearGradient>
<linearGradient id="paint3_linear_768_1392" x1="30.8512" y1="43.4639" x2="30.8512" y2="53.1365" gradientUnits="userSpaceOnUse">
<stop stop-color="#C19645"/>
<stop offset="1" stop-color="#E4CA70"/>
</linearGradient>
<linearGradient id="paint4_linear_768_1392" x1="34.4222" y1="57.873" x2="34.4222" y2="63.5789" gradientUnits="userSpaceOnUse">
<stop stop-color="#C19645"/>
<stop offset="1" stop-color="#E4CA70"/>
</linearGradient>
<linearGradient id="paint5_linear_768_1392" x1="29.3824" y1="50.3081" x2="29.3824" y2="60.7949" gradientUnits="userSpaceOnUse">
<stop stop-color="#C19645"/>
<stop offset="1" stop-color="#E4CA70"/>
</linearGradient>
<linearGradient id="paint6_linear_768_1392" x1="30.7988" y1="66.395" x2="30.7988" y2="70.7451" gradientUnits="userSpaceOnUse">
<stop stop-color="#C19645"/>
<stop offset="1" stop-color="#E4CA70"/>
</linearGradient>
<linearGradient id="paint7_linear_768_1392" x1="26.6522" y1="56.9102" x2="26.6522" y2="67.8901" gradientUnits="userSpaceOnUse">
<stop stop-color="#C19645"/>
<stop offset="1" stop-color="#E4CA70"/>
</linearGradient>
<linearGradient id="paint8_linear_768_1392" x1="25.9683" y1="73.7441" x2="25.9683" y2="77.2713" gradientUnits="userSpaceOnUse">
<stop stop-color="#C19645"/>
<stop offset="1" stop-color="#E4CA70"/>
</linearGradient>
<linearGradient id="paint9_linear_768_1392" x1="22.7366" y1="63.0688" x2="22.7366" y2="74.2083" gradientUnits="userSpaceOnUse">
<stop stop-color="#C19645"/>
<stop offset="1" stop-color="#E4CA70"/>
</linearGradient>
<linearGradient id="paint10_linear_768_1392" x1="20.1021" y1="79.6489" x2="20.1021" y2="82.9603" gradientUnits="userSpaceOnUse">
<stop stop-color="#C19645"/>
<stop offset="1" stop-color="#E4CA70"/>
</linearGradient>
<linearGradient id="paint11_linear_768_1392" x1="17.8742" y1="68.6021" x2="17.8742" y2="79.5608" gradientUnits="userSpaceOnUse">
<stop stop-color="#C19645"/>
<stop offset="1" stop-color="#E4CA70"/>
</linearGradient>
<linearGradient id="paint12_linear_768_1392" x1="13.3563" y1="84.1709" x2="13.3563" y2="87.6723" gradientUnits="userSpaceOnUse">
<stop stop-color="#C19645"/>
<stop offset="1" stop-color="#E4CA70"/>
</linearGradient>
<linearGradient id="paint13_linear_768_1392" x1="12.3227" y1="73.3301" x2="12.3227" y2="83.7765" gradientUnits="userSpaceOnUse">
<stop stop-color="#C19645"/>
<stop offset="1" stop-color="#E4CA70"/>
</linearGradient>
<linearGradient id="paint14_linear_768_1392" x1="7.43459" y1="86.7241" x2="7.43459" y2="91.0008" gradientUnits="userSpaceOnUse">
<stop stop-color="#C19645"/>
<stop offset="1" stop-color="#E4CA70"/>
</linearGradient>
<linearGradient id="paint15_linear_768_1392" x1="6.23885" y1="77.1216" x2="6.23885" y2="86.7368" gradientUnits="userSpaceOnUse">
<stop stop-color="#C19645"/>
<stop offset="1" stop-color="#E4CA70"/>
</linearGradient>
<linearGradient id="paint16_linear_768_1392" x1="13.5941" y1="0.400879" x2="13.5941" y2="4.53487" gradientUnits="userSpaceOnUse">
<stop stop-color="#C19645"/>
<stop offset="1" stop-color="#E4CA70"/>
</linearGradient>
<linearGradient id="paint17_linear_768_1392" x1="18.9638" y1="0.538086" x2="18.9638" y2="7.43327" gradientUnits="userSpaceOnUse">
<stop stop-color="#C19645"/>
<stop offset="1" stop-color="#E4CA70"/>
</linearGradient>
<linearGradient id="paint18_linear_768_1392" x1="15.1625" y1="5.76465" x2="15.1625" y2="8.07621" gradientUnits="userSpaceOnUse">
<stop stop-color="#C19645"/>
<stop offset="1" stop-color="#E4CA70"/>
</linearGradient>
<linearGradient id="paint19_linear_768_1392" x1="23.5891" y1="3.6958" x2="23.5891" y2="11.7134" gradientUnits="userSpaceOnUse">
<stop stop-color="#C19645"/>
<stop offset="1" stop-color="#E4CA70"/>
</linearGradient>
<linearGradient id="paint20_linear_768_1392" x1="18.9088" y1="9.03418" x2="18.9088" y2="11.4569" gradientUnits="userSpaceOnUse">
<stop stop-color="#C19645"/>
<stop offset="1" stop-color="#E4CA70"/>
</linearGradient>
<linearGradient id="paint21_linear_768_1392" x1="27.9155" y1="7.28125" x2="27.9155" y2="17.108" gradientUnits="userSpaceOnUse">
<stop stop-color="#C19645"/>
<stop offset="1" stop-color="#E4CA70"/>
</linearGradient>
<linearGradient id="paint22_linear_768_1392" x1="21.9673" y1="12.7417" x2="21.9673" y2="15.855" gradientUnits="userSpaceOnUse">
<stop stop-color="#C19645"/>
<stop offset="1" stop-color="#E4CA70"/>
</linearGradient>
<linearGradient id="paint23_linear_768_1392" x1="32.0342" y1="13.2837" x2="32.0342" y2="24.2616" gradientUnits="userSpaceOnUse">
<stop stop-color="#C19645"/>
<stop offset="1" stop-color="#E4CA70"/>
</linearGradient>
<linearGradient id="paint24_linear_768_1392" x1="25.1616" y1="17.7095" x2="25.1616" y2="22.0553" gradientUnits="userSpaceOnUse">
<stop stop-color="#C19645"/>
<stop offset="1" stop-color="#E4CA70"/>
</linearGradient>
<linearGradient id="paint25_linear_768_1392" x1="35.2117" y1="21.4829" x2="35.2117" y2="31.9676" gradientUnits="userSpaceOnUse">
<stop stop-color="#C19645"/>
<stop offset="1" stop-color="#E4CA70"/>
</linearGradient>
<linearGradient id="paint26_linear_768_1392" x1="28.3097" y1="23.5513" x2="28.3097" y2="29.2571" gradientUnits="userSpaceOnUse">
<stop stop-color="#C19645"/>
<stop offset="1" stop-color="#E4CA70"/>
</linearGradient>
<linearGradient id="paint27_linear_768_1392" x1="37.1679" y1="30.3115" x2="37.1679" y2="39.9841" gradientUnits="userSpaceOnUse">
<stop stop-color="#C19645"/>
<stop offset="1" stop-color="#E4CA70"/>
</linearGradient>
<linearGradient id="paint28_linear_768_1392" x1="30.3345" y1="29.8789" x2="30.3345" y2="37.0823" gradientUnits="userSpaceOnUse">
<stop stop-color="#C19645"/>
<stop offset="1" stop-color="#E4CA70"/>
</linearGradient>
<linearGradient id="paint29_linear_768_1392" x1="37.6824" y1="39.1074" x2="37.6824" y2="47.6799" gradientUnits="userSpaceOnUse">
<stop stop-color="#C19645"/>
<stop offset="1" stop-color="#E4CA70"/>
</linearGradient>
<linearGradient id="paint30_linear_768_1392" x1="31.1739" y1="36.1831" x2="31.1739" y2="44.7566" gradientUnits="userSpaceOnUse">
<stop stop-color="#C19645"/>
<stop offset="1" stop-color="#E4CA70"/>
</linearGradient>
<linearGradient id="paint31_linear_768_1392" x1="36.7399" y1="48.3916" x2="36.7399" y2="55.595" gradientUnits="userSpaceOnUse">
<stop stop-color="#C19645"/>
<stop offset="1" stop-color="#E4CA70"/>
</linearGradient>
<linearGradient id="paint32_linear_768_1392" x1="30.8512" y1="43.0645" x2="30.8512" y2="52.7371" gradientUnits="userSpaceOnUse">
<stop stop-color="#C19645"/>
<stop offset="1" stop-color="#E4CA70"/>
</linearGradient>
<linearGradient id="paint33_linear_768_1392" x1="34.4222" y1="57.4756" x2="34.4222" y2="63.1814" gradientUnits="userSpaceOnUse">
<stop stop-color="#C19645"/>
<stop offset="1" stop-color="#E4CA70"/>
</linearGradient>
<linearGradient id="paint34_linear_768_1392" x1="29.3824" y1="49.9116" x2="29.3824" y2="60.3984" gradientUnits="userSpaceOnUse">
<stop stop-color="#C19645"/>
<stop offset="1" stop-color="#E4CA70"/>
</linearGradient>
<linearGradient id="paint35_linear_768_1392" x1="30.7988" y1="65.9976" x2="30.7988" y2="70.3476" gradientUnits="userSpaceOnUse">
<stop stop-color="#C19645"/>
<stop offset="1" stop-color="#E4CA70"/>
</linearGradient>
<linearGradient id="paint36_linear_768_1392" x1="26.6522" y1="56.5093" x2="26.6522" y2="67.4893" gradientUnits="userSpaceOnUse">
<stop stop-color="#C19645"/>
<stop offset="1" stop-color="#E4CA70"/>
</linearGradient>
<linearGradient id="paint37_linear_768_1392" x1="25.9683" y1="73.3467" x2="25.9683" y2="76.8732" gradientUnits="userSpaceOnUse">
<stop stop-color="#C19645"/>
<stop offset="1" stop-color="#E4CA70"/>
</linearGradient>
<linearGradient id="paint38_linear_768_1392" x1="22.7371" y1="62.6709" x2="22.7371" y2="73.8103" gradientUnits="userSpaceOnUse">
<stop stop-color="#C19645"/>
<stop offset="1" stop-color="#E4CA70"/>
</linearGradient>
<linearGradient id="paint39_linear_768_1392" x1="20.1021" y1="79.2559" x2="20.1021" y2="82.5642" gradientUnits="userSpaceOnUse">
<stop stop-color="#C19645"/>
<stop offset="1" stop-color="#E4CA70"/>
</linearGradient>
<linearGradient id="paint40_linear_768_1392" x1="17.8742" y1="68.2012" x2="17.8742" y2="79.1599" gradientUnits="userSpaceOnUse">
<stop stop-color="#C19645"/>
<stop offset="1" stop-color="#E4CA70"/>
</linearGradient>
<linearGradient id="paint41_linear_768_1392" x1="13.3563" y1="83.7729" x2="13.3563" y2="87.2745" gradientUnits="userSpaceOnUse">
<stop stop-color="#C19645"/>
<stop offset="1" stop-color="#E4CA70"/>
</linearGradient>
<linearGradient id="paint42_linear_768_1392" x1="12.3227" y1="72.9302" x2="12.3227" y2="83.3766" gradientUnits="userSpaceOnUse">
<stop stop-color="#C19645"/>
<stop offset="1" stop-color="#E4CA70"/>
</linearGradient>
<linearGradient id="paint43_linear_768_1392" x1="7.43459" y1="86.3286" x2="7.43459" y2="90.6069" gradientUnits="userSpaceOnUse">
<stop stop-color="#C19645"/>
<stop offset="1" stop-color="#E4CA70"/>
</linearGradient>
<linearGradient id="paint44_linear_768_1392" x1="6.23885" y1="76.7217" x2="6.23885" y2="86.3369" gradientUnits="userSpaceOnUse">
<stop stop-color="#C19645"/>
<stop offset="1" stop-color="#E4CA70"/>
</linearGradient>
<linearGradient id="paint45_linear_768_1392" x1="13.5941" y1="0" x2="13.5941" y2="4.13399" gradientUnits="userSpaceOnUse">
<stop stop-color="#C19645"/>
<stop offset="1" stop-color="#E4CA70"/>
</linearGradient>
<linearGradient id="paint46_linear_768_1392" x1="18.9637" y1="0.138184" x2="18.9637" y2="7.03336" gradientUnits="userSpaceOnUse">
<stop stop-color="#C19645"/>
<stop offset="1" stop-color="#E4CA70"/>
</linearGradient>
<linearGradient id="paint47_linear_768_1392" x1="15.1625" y1="5.36475" x2="15.1625" y2="7.67744" gradientUnits="userSpaceOnUse">
<stop stop-color="#C19645"/>
<stop offset="1" stop-color="#E4CA70"/>
</linearGradient>
<linearGradient id="paint48_linear_768_1392" x1="23.5891" y1="3.29834" x2="23.5891" y2="11.316" gradientUnits="userSpaceOnUse">
<stop stop-color="#C19645"/>
<stop offset="1" stop-color="#E4CA70"/>
</linearGradient>
<linearGradient id="paint49_linear_768_1392" x1="18.9088" y1="8.6333" x2="18.9088" y2="11.055" gradientUnits="userSpaceOnUse">
<stop stop-color="#C19645"/>
<stop offset="1" stop-color="#E4CA70"/>
</linearGradient>
<linearGradient id="paint50_linear_768_1392" x1="27.9155" y1="6.88574" x2="27.9155" y2="16.7114" gradientUnits="userSpaceOnUse">
<stop stop-color="#C19645"/>
<stop offset="1" stop-color="#E4CA70"/>
</linearGradient>
<linearGradient id="paint51_linear_768_1392" x1="21.9673" y1="12.3447" x2="21.9673" y2="15.4582" gradientUnits="userSpaceOnUse">
<stop stop-color="#C19645"/>
<stop offset="1" stop-color="#E4CA70"/>
</linearGradient>
<linearGradient id="paint52_linear_768_1392" x1="32.0342" y1="12.8867" x2="32.0342" y2="23.8646" gradientUnits="userSpaceOnUse">
<stop stop-color="#C19645"/>
<stop offset="1" stop-color="#E4CA70"/>
</linearGradient>
<linearGradient id="paint53_linear_768_1392" x1="25.1616" y1="17.3091" x2="25.1616" y2="21.6549" gradientUnits="userSpaceOnUse">
<stop stop-color="#C19645"/>
<stop offset="1" stop-color="#E4CA70"/>
</linearGradient>
<linearGradient id="paint54_linear_768_1392" x1="35.2119" y1="21.0864" x2="35.2119" y2="31.5711" gradientUnits="userSpaceOnUse">
<stop stop-color="#C19645"/>
<stop offset="1" stop-color="#E4CA70"/>
</linearGradient>
<linearGradient id="paint55_linear_768_1392" x1="28.3097" y1="23.1538" x2="28.3097" y2="28.8596" gradientUnits="userSpaceOnUse">
<stop stop-color="#C19645"/>
<stop offset="1" stop-color="#E4CA70"/>
</linearGradient>
<linearGradient id="paint56_linear_768_1392" x1="37.1679" y1="29.9141" x2="37.1679" y2="39.5867" gradientUnits="userSpaceOnUse">
<stop stop-color="#C19645"/>
<stop offset="1" stop-color="#E4CA70"/>
</linearGradient>
<linearGradient id="paint57_linear_768_1392" x1="30.3345" y1="29.4814" x2="30.3345" y2="36.6849" gradientUnits="userSpaceOnUse">
<stop stop-color="#C19645"/>
<stop offset="1" stop-color="#E4CA70"/>
</linearGradient>
<linearGradient id="paint58_linear_768_1392" x1="17.498" y1="3.31738" x2="17.498" y2="88.0079" gradientUnits="userSpaceOnUse">
<stop stop-color="#C19645"/>
<stop offset="1" stop-color="#E4CA70"/>
</linearGradient>
<clipPath id="clip0_768_1392">
<rect width="41" height="91" fill="white" transform="matrix(-1 0 0 1 41 0)"/>
</clipPath>
</defs>
</svg>
